<svg width="40" height="40" viewBox="0 0 40 40" fill="none" xmlns="http://www.w3.org/2000/svg">
<rect x="0.5" y="0.5" width="39" height="39" rx="3.5" fill="#F4F6FD" stroke="#E2E7F8"/>
<g opacity="0.8">
<g opacity="0.5">
<path opacity="0.0244" d="M20.0001 31.8117C30.7982 31.8117 39.5518 30.4342 39.5518 28.7349C39.5518 27.0357 30.7982 25.6582 20.0001 25.6582C9.20206 25.6582 0.448486 27.0357 0.448486 28.7349C0.448486 30.4342 9.20206 31.8117 20.0001 31.8117Z" fill="#FBFCFE"/>
<path opacity="0.0488" d="M19.9998 31.7397C30.5503 31.7397 39.1031 30.394 39.1031 28.7341C39.1031 27.0742 30.5503 25.7285 19.9998 25.7285C9.44933 25.7285 0.896484 27.0742 0.896484 28.7341C0.896484 30.394 9.44933 31.7397 19.9998 31.7397Z" fill="#F8FAFE"/>
<path opacity="0.0732" d="M19.9999 31.6724C30.3028 31.6724 38.6549 30.3575 38.6549 28.7356C38.6549 27.1137 30.3028 25.7988 19.9999 25.7988C9.69709 25.7988 1.34497 27.1137 1.34497 28.7356C1.34497 30.3575 9.69709 31.6724 19.9999 31.6724Z" fill="#F4F7FD"/>
<path opacity="0.0976" d="M20 31.6004C30.0552 31.6004 38.2066 30.3174 38.2066 28.7348C38.2066 27.1521 30.0552 25.8691 20 25.8691C9.94472 25.8691 1.79333 27.1521 1.79333 28.7348C1.79333 30.3174 9.94472 31.6004 20 31.6004Z" fill="#F1F5FC"/>
<path opacity="0.122" d="M20 31.5293C29.8076 31.5293 37.7582 30.2782 37.7582 28.7349C37.7582 27.1915 29.8076 25.9404 20 25.9404C10.1924 25.9404 2.2417 27.1915 2.2417 28.7349C2.2417 30.2782 10.1924 31.5293 20 31.5293Z" fill="#EDF2FC"/>
<path opacity="0.1463" d="M19.9999 31.4601C29.5599 31.4601 37.3098 30.2398 37.3098 28.7344C37.3098 27.2291 29.5599 26.0088 19.9999 26.0088C10.4399 26.0088 2.68994 27.2291 2.68994 28.7344C2.68994 30.2398 10.4399 31.4601 19.9999 31.4601Z" fill="#E9F0FB"/>
<path opacity="0.1707" d="M19.9999 31.39C29.3123 31.39 36.8615 30.2016 36.8615 28.7355C36.8615 27.2695 29.3123 26.0811 19.9999 26.0811C10.6875 26.0811 3.13831 27.2695 3.13831 28.7355C3.13831 30.2016 10.6875 31.39 19.9999 31.39Z" fill="#E6EDFA"/>
<path opacity="0.1951" d="M20.0002 31.319C29.0649 31.319 36.4134 30.1624 36.4134 28.7357C36.4134 27.3089 29.0649 26.1523 20.0002 26.1523C10.9354 26.1523 3.58691 27.3089 3.58691 28.7357C3.58691 30.1624 10.9354 31.319 20.0002 31.319Z" fill="#E2EBFA"/>
<path opacity="0.2195" d="M20 31.247C28.8185 31.247 35.9672 30.1222 35.9672 28.7348C35.9672 27.3474 28.8185 26.2227 20 26.2227C11.1815 26.2227 4.03271 27.3474 4.03271 28.7348C4.03271 30.1222 11.1815 31.247 20 31.247Z" fill="#DFE8F9"/>
<path opacity="0.2439" d="M19.9999 31.1787C28.5707 31.1787 35.5188 30.0848 35.5188 28.7354C35.5188 27.3859 28.5707 26.292 19.9999 26.292C11.429 26.292 4.48096 27.3859 4.48096 28.7354C4.48096 30.0848 11.429 31.1787 19.9999 31.1787Z" fill="#DBE6F8"/>
<path opacity="0.2683" d="M19.9999 31.1077C28.3231 31.1077 35.0705 30.0456 35.0705 28.7355C35.0705 27.4254 28.3231 26.3633 19.9999 26.3633C11.6766 26.3633 4.92932 27.4254 4.92932 28.7355C4.92932 30.0456 11.6766 31.1077 19.9999 31.1077Z" fill="#D8E3F7"/>
<path opacity="0.2927" d="M19.9999 31.0366C28.0756 31.0366 34.6221 30.0064 34.6221 28.7356C34.6221 27.4648 28.0756 26.4346 19.9999 26.4346C11.9243 26.4346 5.37769 27.4648 5.37769 28.7356C5.37769 30.0064 11.9243 31.0366 19.9999 31.0366Z" fill="#D4E1F7"/>
<path opacity="0.3171" d="M20.0001 30.9646C27.8281 30.9646 34.1739 29.9663 34.1739 28.7347C34.1739 27.5032 27.8281 26.5049 20.0001 26.5049C12.172 26.5049 5.82617 27.5032 5.82617 28.7347C5.82617 29.9663 12.172 30.9646 20.0001 30.9646Z" fill="#D0DEF6"/>
<path opacity="0.3415" d="M20.0001 30.8954C27.5805 30.8954 33.7256 29.9278 33.7256 28.7343C33.7256 27.5408 27.5805 26.5732 20.0001 26.5732C12.4197 26.5732 6.27454 27.5408 6.27454 28.7343C6.27454 29.9278 12.4197 30.8954 20.0001 30.8954Z" fill="#CDDCF5"/>
<path opacity="0.3659" d="M19.9998 30.8253C27.3326 30.8253 33.277 29.8896 33.277 28.7354C33.277 27.5812 27.3326 26.6455 19.9998 26.6455C12.6671 26.6455 6.72266 27.5812 6.72266 28.7354C6.72266 29.8896 12.6671 30.8253 19.9998 30.8253Z" fill="#C9D9F5"/>
<path opacity="0.3902" d="M20 30.7533C27.0852 30.7533 32.8288 29.8495 32.8288 28.7346C32.8288 27.6196 27.0852 26.7158 20 26.7158C12.9148 26.7158 7.17114 27.6196 7.17114 28.7346C7.17114 29.8495 12.9148 30.7533 20 30.7533Z" fill="#C6D7F4"/>
<path opacity="0.4146" d="M20 30.6851C26.8376 30.6851 32.3805 29.812 32.3805 28.7351C32.3805 27.6582 26.8376 26.7852 20 26.7852C13.1624 26.7852 7.61951 27.6582 7.61951 28.7351C7.61951 29.812 13.1624 30.6851 20 30.6851Z" fill="#C2D4F3"/>
<path opacity="0.439" d="M19.9998 30.614C26.5911 30.614 31.9344 29.7728 31.9344 28.7352C31.9344 27.6976 26.5911 26.8564 19.9998 26.8564C13.4086 26.8564 8.06531 27.6976 8.06531 28.7352C8.06531 29.7728 13.4086 30.614 19.9998 30.614Z" fill="#BED2F3"/>
<path opacity="0.4634" d="M19.9999 30.542C26.3435 30.542 31.486 29.7327 31.486 28.7344C31.486 27.7361 26.3435 26.9268 19.9999 26.9268C13.6562 26.9268 8.51367 27.7361 8.51367 28.7344C8.51367 29.7327 13.6562 30.542 19.9999 30.542Z" fill="#BBCFF2"/>
<path opacity="0.4878" d="M19.9999 30.4719C26.0959 30.4719 31.0377 29.6945 31.0377 28.7355C31.0377 27.7765 26.0959 26.999 19.9999 26.999C13.9038 26.999 8.96204 27.7765 8.96204 28.7355C8.96204 29.6945 13.9038 30.4719 19.9999 30.4719Z" fill="#B7CDF1"/>
<path opacity="0.5122" d="M30.5894 28.735C30.5894 29.6555 25.8474 30.4027 19.9999 30.4027C14.1524 30.4027 9.4104 29.6555 9.4104 28.735C9.4104 27.8146 14.1524 27.0674 19.9999 27.0674C25.8497 27.0674 30.5894 27.8146 30.5894 28.735Z" fill="#B4CAF1"/>
<path opacity="0.5366" d="M20 30.3317C25.6008 30.3317 30.1412 29.6169 30.1412 28.7352C30.1412 27.8534 25.6008 27.1387 20 27.1387C14.3992 27.1387 9.85889 27.8534 9.85889 28.7352C9.85889 29.6169 14.3992 30.3317 20 30.3317Z" fill="#B0C8F0"/>
<path opacity="0.561" d="M29.693 28.7353C29.693 29.5774 25.3542 30.2606 20.0002 30.2606C14.6461 30.2606 10.3074 29.5774 10.3074 28.7353C10.3074 27.8932 14.6461 27.21 20.0002 27.21C25.3542 27.21 29.693 27.8932 29.693 28.7353Z" fill="#ADC5EF"/>
<path opacity="0.5854" d="M29.2444 28.7364C29.2444 29.5406 25.1049 30.1905 19.9999 30.1905C14.895 30.1905 10.7555 29.5382 10.7555 28.7364C10.7555 27.9322 14.895 27.2822 19.9999 27.2822C25.1073 27.2822 29.2444 27.9322 29.2444 28.7364Z" fill="#A9C3EF"/>
<path opacity="0.6098" d="M28.7983 28.7369C28.7983 29.5008 24.8604 30.1223 20.0022 30.1223C15.1439 30.1223 11.2061 29.5031 11.2061 28.7369C11.2061 27.9731 15.1439 27.3516 20.0022 27.3516C24.8581 27.3516 28.7983 27.9731 28.7983 28.7369Z" fill="#A5C0EE"/>
<path opacity="0.6341" d="M20 30.0493C24.6103 30.0493 28.3478 29.4609 28.3478 28.7351C28.3478 28.0093 24.6103 27.4209 20 27.4209C15.3896 27.4209 11.6522 28.0093 11.6522 28.7351C11.6522 29.4609 15.3896 30.0493 20 30.0493Z" fill="#A2BEED"/>
<path opacity="0.6585" d="M27.9017 28.7362C27.9017 29.4241 24.3648 29.9792 19.9999 29.9792C15.6375 29.9792 12.0981 29.4218 12.0981 28.7362C12.0981 28.0506 15.6351 27.4932 19.9999 27.4932C24.3648 27.4932 27.9017 28.0506 27.9017 28.7362Z" fill="#9EBBED"/>
<path opacity="0.6829" d="M20.0001 29.9072C24.1165 29.9072 27.4535 29.3825 27.4535 28.7353C27.4535 28.0881 24.1165 27.5635 20.0001 27.5635C15.8837 27.5635 12.5466 28.0881 12.5466 28.7353C12.5466 29.3825 15.8837 29.9072 20.0001 29.9072Z" fill="#9BB9EC"/>
<path opacity="0.7073" d="M27.005 28.7359C27.005 29.3455 23.8689 29.839 19.9999 29.839C16.1308 29.839 12.9948 29.3455 12.9948 28.7359C12.9948 28.1262 16.1308 27.6328 19.9999 27.6328C23.8689 27.6328 27.005 28.1262 27.005 28.7359Z" fill="#97B6EB"/>
<path opacity="0.7317" d="M26.5566 28.736C26.5566 29.3053 23.6222 29.7679 19.9999 29.7679C16.3799 29.7679 13.4431 29.3053 13.4431 28.736C13.4431 28.1667 16.3775 27.7041 19.9999 27.7041C23.6222 27.7041 26.5566 28.1667 26.5566 28.736Z" fill="#93B4EB"/>
<path opacity="0.7561" d="M20 29.6959C23.3736 29.6959 26.1084 29.2658 26.1084 28.7352C26.1084 28.2045 23.3736 27.7744 20 27.7744C16.6264 27.7744 13.8916 28.2045 13.8916 28.7352C13.8916 29.2658 16.6264 29.6959 20 29.6959Z" fill="#90B1EA"/>
<path opacity="0.7805" d="M25.66 28.7357C25.66 29.2267 23.1265 29.6276 19.9999 29.6276C16.8734 29.6276 14.3398 29.2291 14.3398 28.7357C14.3398 28.2447 16.8734 27.8438 19.9999 27.8438C23.1265 27.8438 25.66 28.2447 25.66 28.7357Z" fill="#8CAFE9"/>
<path opacity="0.8049" d="M19.9999 29.5556C22.8783 29.5556 25.2116 29.1881 25.2116 28.7348C25.2116 28.2815 22.8783 27.9141 19.9999 27.9141C17.1216 27.9141 14.7882 28.2815 14.7882 28.7348C14.7882 29.1881 17.1216 29.5556 19.9999 29.5556Z" fill="#89ACE8"/>
<path opacity="0.8293" d="M24.7656 28.7359C24.7656 29.1511 22.633 29.4856 20.0023 29.4856C17.3715 29.4856 15.2389 29.1487 15.2389 28.7359C15.2389 28.3232 17.3715 27.9863 20.0023 27.9863C22.6307 27.9863 24.7656 28.3208 24.7656 28.7359Z" fill="#85AAE8"/>
<path opacity="0.8537" d="M20 29.4145C22.3831 29.4145 24.315 29.1108 24.315 28.7361C24.315 28.3614 22.3831 28.0576 20 28.0576C17.6168 28.0576 15.6849 28.3614 15.6849 28.7361C15.6849 29.1108 17.6168 29.4145 20 29.4145Z" fill="#82A7E7"/>
<path opacity="0.878" d="M23.8691 28.7347C23.8691 29.0715 22.1374 29.3443 20 29.3443C17.8627 29.3443 16.131 29.0715 16.131 28.7347C16.131 28.3978 17.8627 28.125 20 28.125C22.1374 28.125 23.8691 28.3978 23.8691 28.7347Z" fill="#7EA5E6"/>
<path opacity="0.9024" d="M20.0001 29.2742C21.8893 29.2742 23.4208 29.0332 23.4208 28.7358C23.4208 28.4384 21.8893 28.1973 20.0001 28.1973C18.1109 28.1973 16.5793 28.4384 16.5793 28.7358C16.5793 29.0332 18.1109 29.2742 20.0001 29.2742Z" fill="#7AA2E6"/>
<path opacity="0.9268" d="M20 29.2012C21.6415 29.2012 22.9723 28.992 22.9723 28.7339C22.9723 28.4758 21.6415 28.2666 20 28.2666C18.3584 28.2666 17.0276 28.4758 17.0276 28.7339C17.0276 28.992 18.3584 29.2012 20 29.2012Z" fill="#77A0E5"/>
<path opacity="0.9512" d="M22.5239 28.736C22.5239 28.9542 21.3947 29.1322 19.9999 29.1322C18.605 29.1322 17.4758 28.9542 17.4758 28.736C17.4758 28.5178 18.605 28.3398 19.9999 28.3398C21.3947 28.3398 22.5239 28.5178 22.5239 28.736Z" fill="#739DE4"/>
<path opacity="0.9756" d="M22.0755 28.7365C22.0755 28.9168 21.1456 29.0639 19.9999 29.0639C18.8541 29.0639 17.9242 28.9168 17.9242 28.7365C17.9242 28.5563 18.8541 28.4092 19.9999 28.4092C21.148 28.4092 22.0755 28.5563 22.0755 28.7365Z" fill="#709BE4"/>
<path opacity="0.5" d="M21.6273 28.7367C21.6273 28.879 20.8991 28.9929 20 28.9929C19.1009 28.9929 18.3727 28.879 18.3727 28.7367C18.3727 28.5943 19.1009 28.4805 20 28.4805C20.8991 28.4805 21.6273 28.5943 21.6273 28.7367Z" fill="#6C98E3"/>
</g>
<path d="M26.4311 21.1666C26.4026 21.1666 26.3789 21.1428 26.3789 21.1144V17.6794C26.3789 15.8101 24.8583 14.2896 22.989 14.2896C21.1197 14.2896 19.5991 15.8101 19.5991 17.6794V21.1144C19.5991 21.1428 19.5754 21.1666 19.5469 21.1666H19.3168C19.2884 21.1666 19.2646 21.1428 19.2646 21.1144V17.6794C19.2646 15.6251 20.9347 13.9551 22.989 13.9551C25.0433 13.9551 26.7133 15.6251 26.7133 17.6794V21.1144C26.7133 21.1428 26.6896 21.1666 26.6612 21.1666H26.4311Z" fill="#6C98E3"/>
<path d="M19.981 28.7864H15.5189V18.8042C15.5189 18.6097 15.6755 18.4531 15.87 18.4531H19.9787V28.7864H19.981Z" fill="url(#paint0_linear)"/>
<path d="M19.8647 28.7864H32.1195C32.2476 28.7864 32.3519 28.682 32.3519 28.5539V18.6832C32.3519 18.5575 32.2499 18.4531 32.1218 18.4531H19.8623V28.7864H19.8647Z" fill="url(#paint1_linear)"/>
<path d="M17.7512 28.7864H15.5214V18.6856C15.5214 18.5575 15.6257 18.4531 15.7538 18.4531H17.7512V28.7864Z" fill="url(#paint2_linear)"/>
<path d="M19.9811 28.7844H15.5214L17.7512 26.1465L19.9811 28.7844Z" fill="url(#paint3_linear)"/>
<path d="M23.5392 21.0839C23.5392 21.5109 23.1929 21.8572 22.7659 21.8572C22.3389 21.8572 21.9926 21.5109 21.9926 21.0839C21.9926 20.6569 22.3389 20.3105 22.7659 20.3105C23.1929 20.3105 23.5392 20.6569 23.5392 21.0839Z" fill="#89ADE9"/>
<path d="M30.6534 21.0839C30.6534 21.5109 30.307 21.8572 29.88 21.8572C29.453 21.8572 29.1067 21.5109 29.1067 21.0839C29.1067 20.6569 29.453 20.3105 29.88 20.3105C30.307 20.3105 30.6534 20.6569 30.6534 21.0839Z" fill="#89ADE9"/>
<path d="M29.7664 21.1666C29.7379 21.1666 29.7142 21.1428 29.7142 21.1144V17.6794C29.7142 15.8101 28.1936 14.2896 26.3243 14.2896C24.455 14.2896 22.9345 15.8101 22.9345 17.6794V21.1144C22.9345 21.1428 22.9107 21.1666 22.8823 21.1666H22.6522C22.6237 21.1666 22.6 21.1428 22.6 21.1144V17.6794C22.6 15.6251 24.27 13.9551 26.3243 13.9551C28.3787 13.9551 30.0487 15.6251 30.0487 17.6794V21.1144C30.0487 21.1428 30.025 21.1666 29.9965 21.1666H29.7664Z" fill="#6C98E3"/>
<path opacity="0.0244" d="M23.0737 28.2224C23.0737 28.5355 22.8199 28.7893 22.5067 28.7893H20.1061V18.4561H23.0737V28.2224Z" fill="#FAFBFD"/>
<path opacity="0.0488" d="M23.0342 28.2204C23.0342 28.5336 22.7804 28.7874 22.4673 28.7874H20.1022V18.4541H23.0318V28.2204H23.0342Z" fill="#F5F7FB"/>
<path opacity="0.0732" d="M22.9939 28.2204C22.9939 28.5336 22.7401 28.7874 22.4269 28.7874H20.1022V18.4541H22.9939V28.2204Z" fill="#F0F3FA"/>
<path opacity="0.0976" d="M22.9559 28.2204C22.9559 28.5336 22.7021 28.7874 22.389 28.7874H20.1022V18.4541H22.9559V28.2204Z" fill="#EBEFF8"/>
<path opacity="0.122" d="M22.918 28.2204C22.918 28.5336 22.6641 28.7874 22.351 28.7874H20.1022V18.4541H22.9156V28.2204H22.918Z" fill="#E6EBF6"/>
<path opacity="0.1463" d="M22.88 28.2204C22.88 28.5336 22.6262 28.7874 22.3131 28.7874H20.1022V18.4541H22.8776V28.2204H22.88Z" fill="#E1E6F4"/>
<path opacity="0.1707" d="M22.8436 28.2224C22.8436 28.5355 22.5898 28.7893 22.2766 28.7893H20.1061V18.4561H22.8436V28.2224Z" fill="#DCE2F2"/>
<path opacity="0.1951" d="M22.8017 28.2204C22.8017 28.5336 22.5479 28.7874 22.2348 28.7874H20.1022V18.4541H22.8017V28.2204Z" fill="#D7DEF0"/>
<path opacity="0.2195" d="M22.7638 28.2204C22.7638 28.5336 22.51 28.7874 22.1968 28.7874H20.1022V18.4541H22.7638V28.2204Z" fill="#D2DAEF"/>
<path opacity="0.2439" d="M22.7258 28.2204C22.7258 28.5336 22.472 28.7874 22.1589 28.7874H20.1022V18.4541H22.7235V28.2204H22.7258Z" fill="#CDD6ED"/>
<path opacity="0.2683" d="M22.6879 28.2204C22.6879 28.5336 22.434 28.7874 22.1209 28.7874H20.1022V18.4541H22.6855V28.2204H22.6879Z" fill="#C9D2EB"/>
<path opacity="0.2927" d="M22.6475 28.2204C22.6475 28.5336 22.3937 28.7874 22.0806 28.7874H20.1022V18.4541H22.6475V28.2204Z" fill="#C4CEE9"/>
<path opacity="0.3171" d="M22.6096 28.2204C22.6096 28.5336 22.3558 28.7874 22.0426 28.7874H20.1022V18.4541H22.6096V28.2204Z" fill="#BFCAE7"/>
<path opacity="0.3415" d="M22.5716 28.2204C22.5716 28.5336 22.3178 28.7874 22.0047 28.7874H20.1022V18.4541H22.5716V28.2204Z" fill="#BAC6E5"/>
<path opacity="0.3659" d="M22.5337 28.2204C22.5337 28.5336 22.2799 28.7874 21.9667 28.7874H20.1022V18.4541H22.5313V28.2204H22.5337Z" fill="#B5C2E4"/>
<path opacity="0.3902" d="M22.4957 28.2204C22.4957 28.5336 22.2419 28.7874 21.9288 28.7874H20.1022V18.4541H22.4934V28.2204H22.4957Z" fill="#B0BDE2"/>
<path opacity="0.4146" d="M22.4554 28.2204C22.4554 28.5336 22.2016 28.7874 21.8884 28.7874H20.1022V18.4541H22.4554V28.2204Z" fill="#ABB9E0"/>
<path opacity="0.439" d="M22.4174 28.2204C22.4174 28.5336 22.1636 28.7874 21.8505 28.7874H20.1022V18.4541H22.4174V28.2204Z" fill="#A6B5DE"/>
<path opacity="0.4634" d="M22.3795 28.2204C22.3795 28.5336 22.1257 28.7874 21.8125 28.7874H20.1022V18.4541H22.3771V28.2204H22.3795Z" fill="#A1B1DC"/>
<path opacity="0.4878" d="M22.3415 28.2204C22.3415 28.5336 22.0877 28.7874 21.7746 28.7874H20.1022V18.4541H22.3392V28.2204H22.3415Z" fill="#9CADDA"/>
<path opacity="0.5122" d="M22.3036 28.2204C22.3036 28.5336 22.0498 28.7874 21.7366 28.7874H20.1022V18.4541H22.3012V28.2204H22.3036Z" fill="#97A9D9"/>
<path opacity="0.5366" d="M22.2632 28.2204C22.2632 28.5336 22.0094 28.7874 21.6963 28.7874H20.1022V18.4541H22.2632V28.2204Z" fill="#92A5D7"/>
<path opacity="0.561" d="M22.2253 28.2204C22.2253 28.5336 21.9715 28.7874 21.6583 28.7874H20.1022V18.4541H22.2253V28.2204Z" fill="#8DA1D5"/>
<path opacity="0.5854" d="M22.1873 28.2204C22.1873 28.5336 21.9335 28.7874 21.6204 28.7874H20.1022V18.4541H22.185V28.2204H22.1873Z" fill="#889DD3"/>
<path opacity="0.6098" d="M22.1494 28.2204C22.1494 28.5336 21.8956 28.7874 21.5824 28.7874H20.1022V18.4541H22.147V28.2204H22.1494Z" fill="#8399D1"/>
<path opacity="0.6341" d="M22.113 28.2224C22.113 28.5355 21.8591 28.7893 21.546 28.7893H20.1061V18.4561H22.113V28.2224Z" fill="#7E94CF"/>
<path opacity="0.6585" d="M22.0711 28.2204C22.0711 28.5336 21.8173 28.7874 21.5041 28.7874H20.1022V18.4541H22.0711V28.2204Z" fill="#7990CE"/>
<path opacity="0.6829" d="M22.0331 28.2204C22.0331 28.5336 21.7793 28.7874 21.4662 28.7874H20.1022V18.4541H22.0331V28.2204Z" fill="#748CCC"/>
<path opacity="0.7073" d="M21.9952 28.2204C21.9952 28.5336 21.7414 28.7874 21.4282 28.7874H20.1022V18.4541H21.9928V28.2204H21.9952Z" fill="#6F88CA"/>
<path opacity="0.7317" d="M21.9572 28.2204C21.9572 28.5336 21.7034 28.7874 21.3903 28.7874H20.1022V18.4541H21.9549V28.2204H21.9572Z" fill="#6A84C8"/>
<path opacity="0.7561" d="M21.9169 28.2204C21.9169 28.5336 21.6631 28.7874 21.35 28.7874H20.1022V18.4541H21.9169V28.2204Z" fill="#6680C6"/>
<path opacity="0.7805" d="M21.8789 28.2204C21.8789 28.5336 21.6251 28.7874 21.312 28.7874H20.1022V18.4541H21.8789V28.2204Z" fill="#617CC4"/>
<path opacity="0.8049" d="M21.841 28.2204C21.841 28.5336 21.5872 28.7874 21.274 28.7874H20.1022V18.4541H21.841V28.2204Z" fill="#5C78C3"/>
<path opacity="0.8293" d="M21.803 28.2204C21.803 28.5336 21.5492 28.7874 21.2361 28.7874H20.1022V18.4541H21.8007V28.2204H21.803Z" fill="#5774C1"/>
<path opacity="0.8537" d="M21.7651 28.2204C21.7651 28.5336 21.5113 28.7874 21.1981 28.7874H20.1022V18.4541H21.7627V28.2204H21.7651Z" fill="#5270BF"/>
<path opacity="0.878" d="M21.7248 28.2204C21.7248 28.5336 21.4709 28.7874 21.1578 28.7874H20.1022V18.4541H21.7248V28.2204Z" fill="#4D6BBD"/>
<path opacity="0.9024" d="M21.6868 28.2204C21.6868 28.5336 21.433 28.7874 21.1198 28.7874H20.1022V18.4541H21.6868V28.2204Z" fill="#4867BB"/>
<path opacity="0.9268" d="M21.6488 28.2204C21.6488 28.5336 21.395 28.7874 21.0819 28.7874H20.1022V18.4541H21.6465V28.2204H21.6488Z" fill="#4363B9"/>
<path opacity="0.9512" d="M21.6109 28.2204C21.6109 28.5336 21.3571 28.7874 21.0439 28.7874H20.1022V18.4541H21.6085V28.2204H21.6109Z" fill="#3E5FB8"/>
<path opacity="0.9756" d="M21.5729 28.2204C21.5729 28.5336 21.3191 28.7874 21.006 28.7874H20.1022V18.4541H21.5706V28.2204H21.5729Z" fill="#395BB6"/>
<path d="M21.5326 28.2204V18.4541H20.1022V28.7874H20.9657C21.2812 28.785 21.5326 28.5312 21.5326 28.2204Z" fill="#3457B4"/>
<path d="M15.8793 14.9791C15.8508 14.9791 15.8271 14.9553 15.8271 14.9269V11.4919C15.8271 9.62264 14.3065 8.10206 12.4372 8.10206C10.568 8.10206 9.04737 9.62264 9.04737 11.4919V14.9269C9.04737 14.9553 9.02365 14.9791 8.99518 14.9791H8.76508C8.73661 14.9791 8.71289 14.9553 8.71289 14.9269V11.4919C8.71289 9.4376 10.3829 7.76758 12.4372 7.76758C14.4916 7.76758 16.1616 9.4376 16.1616 11.4919V14.9269C16.1616 14.9553 16.1379 14.9791 16.1094 14.9791H15.8793Z" fill="#6C98E3"/>
<path d="M9.42946 28.7842H4.96973V12.6177C4.96973 12.4232 5.12629 12.2666 5.32081 12.2666H9.42946V28.7842Z" fill="url(#paint4_linear)"/>
<path d="M9.31328 28.7842H21.5681C21.6962 28.7842 21.8005 28.6798 21.8005 28.5517V12.4967C21.8005 12.371 21.6985 12.2666 21.5704 12.2666H9.31091V28.7842H9.31328Z" fill="url(#paint5_linear)"/>
<path d="M7.1996 28.7842H4.96973V12.4991C4.96973 12.371 5.07411 12.2666 5.2022 12.2666H7.1996V28.7842Z" fill="url(#paint6_linear)"/>
<path d="M9.42946 28.7873H4.96973L7.1996 26.1494L9.42946 28.7873Z" fill="url(#paint7_linear)"/>
<path d="M12.9877 14.8964C12.9877 15.3234 12.6414 15.6697 12.2144 15.6697C11.7874 15.6697 11.441 15.3234 11.441 14.8964C11.441 14.4694 11.7874 14.123 12.2144 14.123C12.6414 14.123 12.9877 14.4694 12.9877 14.8964Z" fill="#89ADE9"/>
<path d="M20.102 14.8964C20.102 15.3234 19.7556 15.6697 19.3286 15.6697C18.9016 15.6697 18.5553 15.3234 18.5553 14.8964C18.5553 14.4694 18.9016 14.123 19.3286 14.123C19.7556 14.123 20.102 14.4694 20.102 14.8964Z" fill="#89ADE9"/>
<path d="M19.2146 14.9791C19.1862 14.9791 19.1624 14.9553 19.1624 14.9269V11.4919C19.1624 9.62264 17.6419 8.10206 15.7726 8.10206C13.9033 8.10206 12.3827 9.62264 12.3827 11.4919V14.9269C12.3827 14.9553 12.359 14.9791 12.3305 14.9791H12.1004C12.0719 14.9791 12.0482 14.9553 12.0482 14.9269V11.4919C12.0482 9.4376 13.7182 7.76758 15.7726 7.76758C17.8269 7.76758 19.4969 9.4376 19.4969 11.4919V14.9269C19.4969 14.9553 19.4732 14.9791 19.4447 14.9791H19.2146Z" fill="#6C98E3"/>
</g>
<defs>
<linearGradient id="paint0_linear" x1="15.5209" y1="23.6202" x2="19.982" y2="23.6202" gradientUnits="userSpaceOnUse">
<stop stop-color="#E3EDFE"/>
<stop offset="1" stop-color="#B3CDFA"/>
</linearGradient>
<linearGradient id="paint1_linear" x1="19.8635" y1="23.6202" x2="32.3518" y2="23.6202" gradientUnits="userSpaceOnUse">
<stop stop-color="#B3CDFA"/>
<stop offset="1" stop-color="#E3EDFE"/>
</linearGradient>
<linearGradient id="paint2_linear" x1="15.521" y1="23.6202" x2="17.7516" y2="23.6202" gradientUnits="userSpaceOnUse">
<stop stop-color="#E3EDFE"/>
<stop offset="1" stop-color="#B3CDFA"/>
</linearGradient>
<linearGradient id="paint3_linear" x1="15.521" y1="27.4651" x2="19.982" y2="27.4651" gradientUnits="userSpaceOnUse">
<stop stop-color="#E3EDFE"/>
<stop offset="1" stop-color="#B3CDFA"/>
</linearGradient>
<linearGradient id="paint4_linear" x1="4.96954" y1="20.5254" x2="9.43058" y2="20.5254" gradientUnits="userSpaceOnUse">
<stop stop-color="#E3EDFE"/>
<stop offset="1" stop-color="#B3CDFA"/>
</linearGradient>
<linearGradient id="paint5_linear" x1="9.31231" y1="20.5254" x2="21.8006" y2="20.5254" gradientUnits="userSpaceOnUse">
<stop stop-color="#E3EDFE"/>
<stop offset="1" stop-color="#B3CDFA"/>
</linearGradient>
<linearGradient id="paint6_linear" x1="4.96954" y1="20.5254" x2="7.20014" y2="20.5254" gradientUnits="userSpaceOnUse">
<stop stop-color="#E3EDFE"/>
<stop offset="1" stop-color="#B3CDFA"/>
</linearGradient>
<linearGradient id="paint7_linear" x1="4.96954" y1="27.468" x2="9.43058" y2="27.468" gradientUnits="userSpaceOnUse">
<stop stop-color="#E3EDFE"/>
<stop offset="1" stop-color="#B3CDFA"/>
</linearGradient>
</defs>
</svg>
