<svg width="55" height="61" viewBox="0 0 55 61" fill="none" xmlns="http://www.w3.org/2000/svg">
<path d="M54.0203 31.4558L48.7076 30.4441C48.0546 30.3198 47.424 30.7515 47.2999 31.4077C47.1759 32.064 47.6052 32.6975 48.2582 32.8218L53.5709 33.8335C54.2239 33.9579 54.8546 33.5262 54.9786 32.8699C55.1026 32.2136 54.6745 31.5803 54.0203 31.4558Z" fill="#ECE2C4"/>
<path d="M31.2615 7.73828C31.9145 7.86263 32.5452 7.43093 32.6692 6.77468L33.6783 1.43547C33.8023 0.779219 33.373 0.145688 32.72 0.0213432C32.067 -0.103002 31.4364 0.328693 31.3124 0.984948L30.3032 6.32415C30.1792 6.98041 30.6073 7.61371 31.2615 7.73828Z" fill="#ECE2C4"/>
<path d="M14.4856 10.5813C14.6724 10.8571 14.9533 11.0313 15.2561 11.0889C15.559 11.1466 15.8838 11.0878 16.1583 10.8999C16.7073 10.5241 16.8498 9.77032 16.476 9.21881L13.4337 4.72776C13.06 4.17625 12.31 4.03343 11.761 4.40924C11.212 4.78504 11.0696 5.53878 11.4433 6.0903L14.4856 10.5813Z" fill="#ECE2C4"/>
<path d="M6.74174 22.4529L1.42901 21.4413C0.776009 21.3169 0.145373 21.7486 0.0213408 22.4049C-0.102692 23.0611 0.326616 23.6947 0.979616 23.819L6.29235 24.8307C6.94535 24.955 7.57598 24.5233 7.70002 23.8671C7.82405 23.2108 7.39474 22.5773 6.74174 22.4529Z" fill="#ECE2C4"/>
<path d="M9.16695 38.723L4.6962 41.7835C4.1472 42.1593 4.00475 42.913 4.37847 43.4645C4.56534 43.7403 4.84616 43.9144 5.149 43.9721C5.45184 44.0298 5.7767 43.9709 6.0512 43.783L10.522 40.7226C11.0709 40.3468 11.2134 39.5931 10.8397 39.0416C10.466 38.4901 9.71713 38.3475 9.16695 38.723Z" fill="#ECE2C4"/>
<path d="M40.5146 44.6923C40.1397 44.1405 39.3908 43.998 38.8419 44.3738C38.2929 44.7496 38.1504 45.5033 38.5241 46.0548L41.5676 50.5461C41.7545 50.8219 42.0353 50.996 42.3381 51.0537C42.641 51.1114 42.9658 51.0525 43.2403 50.8646C43.7893 50.4888 43.9318 49.7351 43.5581 49.1836L40.5146 44.6923Z" fill="#ECE2C4"/>
<path d="M48.9476 11.4917L44.4769 14.5521C43.9279 14.9279 43.7854 15.6816 44.1591 16.2331C44.346 16.5089 44.6268 16.683 44.9297 16.7407C45.2325 16.7984 45.5574 16.7395 45.8319 16.5516L50.3024 13.4924C50.8514 13.1166 50.9939 12.3629 50.6201 11.8114C50.2469 11.2575 49.498 11.1149 48.9476 11.4917Z" fill="#ECE2C4"/>
<path d="M37.6599 41.5228C41.1652 38.9338 43.5425 35.1422 44.3543 30.8469C45.2261 26.2341 44.2288 21.5769 41.5458 17.7332C38.8638 13.8908 34.8436 11.364 30.2237 10.6161C21.0277 9.12856 12.4339 15.1666 10.6602 24.3631C9.83026 28.6636 10.646 33.0755 12.9572 36.7857C14.3065 38.9517 14.7959 41.4909 14.336 43.9245L12.9062 51.1136C12.7422 51.9359 12.9089 52.772 13.3754 53.468C13.8422 54.1629 14.55 54.6327 15.3698 54.7888L16.2677 54.9597C16.2992 57.8084 18.3253 60.3422 21.2153 60.8925C24.1053 61.4429 26.9151 59.8299 27.9838 57.1907L28.8817 57.3617C29.7015 57.5178 30.5325 57.3423 31.2194 56.8659C31.9075 56.3897 32.3677 55.6731 32.5151 54.8476L33.774 47.8107C34.2596 45.2477 35.6388 43.015 37.6599 41.5228ZM13.0234 24.8217C14.5481 16.9166 21.9352 11.7253 29.8398 13.0038C29.9789 13.0266 30.1177 13.0506 30.2561 13.077C34.0535 13.8001 37.3498 15.9353 39.575 19.1216C41.882 22.4257 42.7382 26.4291 41.9886 30.3951C41.2907 34.0878 39.247 37.3468 36.2342 39.5726C34.3313 40.9777 32.8876 42.9037 32.0382 45.1351L29.1979 44.5942C28.5449 44.4699 27.9142 44.9016 27.7902 45.5578C27.6662 46.2141 28.0955 46.8476 28.7485 46.972L31.3889 47.4748L30.919 50.1035L16.1212 47.2857L16.6419 44.6666L19.2835 45.1696C19.9365 45.294 20.5671 44.8623 20.6912 44.206C20.8152 43.5498 20.3859 42.9163 19.7329 42.7919L16.908 42.254C16.9337 39.9003 16.2815 37.5603 14.997 35.499C13.0111 32.3115 12.31 28.5187 13.0234 24.8217ZM21.6649 58.5136C20.088 58.2133 18.9383 56.9364 18.7155 55.4246L25.5365 56.7235C24.7775 58.0483 23.2406 58.8137 21.6649 58.5136ZM29.8548 54.8719C29.7011 54.9781 29.5147 55.0177 29.3313 54.9828L15.8182 52.4096C15.6349 52.3747 15.4759 52.2693 15.3716 52.114C15.2674 51.9586 15.2295 51.7704 15.2666 51.5865L15.6503 49.6606L30.493 52.487L30.1473 54.4201C30.1124 54.6044 30.0098 54.7647 29.8548 54.8719Z" fill="#ECE2C4"/>
<path d="M24.0164 46.0721C24.6697 46.1965 25.3 45.7651 25.4241 45.1085C25.5482 44.4519 25.1191 43.8187 24.4658 43.6943C23.8125 43.5699 23.1822 44.0014 23.0581 44.6579C22.934 45.3145 23.3631 45.9477 24.0164 46.0721Z" fill="#ECE2C4"/>
</svg>
