<svg width="54" height="17" viewBox="0 0 54 17" fill="none" xmlns="http://www.w3.org/2000/svg">
<path d="M41.4591 2.9179V3.41852V4.46875V10.3728C41.4591 11.8589 40.2531 13.24 38.7705 13.3537C36.9501 13.4938 35.443 11.9499 35.6426 10.119C35.7843 8.82198 36.8031 7.75424 38.0949 7.5617C38.774 7.46017 39.4199 7.59495 39.959 7.89602C40.1953 8.0273 40.4859 7.86626 40.4859 7.59495V5.19691C40.4859 5.04113 40.3809 4.9046 40.2321 4.85909C39.5372 4.64904 38.7863 4.56502 38.0091 4.63504C35.1962 4.88359 32.94 7.17311 32.7247 9.98774C32.4639 13.4045 35.1507 16.2611 38.5115 16.2786C41.7374 16.2944 44.377 13.5428 44.377 10.3168V4.467V3.41677V0C42.7667 0 41.4591 1.30754 41.4591 2.9179Z" fill="#3D56A6"/>
<path d="M23.7059 5.10503C25.7651 5.10503 27.4393 6.779 27.4393 8.83788C27.4393 10.8968 25.7651 12.5707 23.7059 12.5707C21.6467 12.5707 19.9703 10.899 19.9703 8.84011C19.9703 6.78123 21.6467 5.10503 23.7059 5.10503ZM23.7059 1.37891C19.5853 1.37891 16.2458 4.71788 16.2458 8.83788C16.2458 12.9579 19.5853 16.2991 23.7059 16.2991C27.8266 16.2991 31.166 12.9601 31.166 8.84011C31.166 4.72011 27.8266 1.37891 23.7059 1.37891Z" fill="#3D56A6"/>
<path d="M48.474 16.2988H46.2597C46.0672 16.2988 45.9097 16.1412 45.9097 15.9487V4.97898C45.9097 4.78644 46.0672 4.62891 46.2597 4.62891H48.474C48.6665 4.62891 48.8241 4.78644 48.8241 4.97898V15.9487C48.8241 16.1412 48.6665 16.2988 48.474 16.2988Z" fill="#3D56A6"/>
<path d="M48.4742 3.75419H46.26C46.0674 3.75419 45.9099 3.59665 45.9099 3.40411V1.72898C45.9099 1.53644 46.0674 1.37891 46.26 1.37891H48.4742C48.6668 1.37891 48.8243 1.53644 48.8243 1.72898V3.40586C48.8243 3.5984 48.6668 3.75419 48.4742 3.75419Z" fill="#3D56A6"/>
<path d="M52.921 16.2988H50.7068C50.5142 16.2988 50.3567 16.1412 50.3567 15.9487V4.97898C50.3567 4.78644 50.5142 4.62891 50.7068 4.62891H52.921C53.1136 4.62891 53.2711 4.78644 53.2711 4.97898V15.9487C53.2711 16.1412 53.1136 16.2988 52.921 16.2988Z" fill="#3D56A6"/>
<path d="M52.921 3.75419H50.7068C50.5142 3.75419 50.3567 3.59665 50.3567 3.40411V1.72898C50.3567 1.53644 50.5142 1.37891 50.7068 1.37891H52.921C53.1136 1.37891 53.2711 1.53644 53.2711 1.72898V3.40586C53.2711 3.5984 53.1136 3.75419 52.921 3.75419Z" fill="#3D56A6"/>
<path d="M6.23976 10.6567C6.23976 10.0345 5.79886 9.27131 5.25948 8.96021L0.980277 6.48714C0.440901 6.17605 0 6.43119 0 7.05337V11.9973C0 12.6195 0.440901 13.3827 0.980277 13.6937L5.26172 16.1668C5.80109 16.4779 6.24199 16.2228 6.24199 15.6006V10.6567H6.23976Z" fill="#3D56A6"/>
<path opacity="0.3" d="M5.14748 9.15582L0.866042 6.68498C0.749662 6.61784 0.637758 6.58203 0.543759 6.58203C0.257285 6.58203 0.225952 6.91327 0.225952 7.05426V8.39263C0.225952 8.25164 0.257285 7.9204 0.543759 7.9204C0.637758 7.9204 0.749662 7.95621 0.866042 8.02335L5.14748 10.4942C5.61748 10.765 6.01362 11.4521 6.01362 11.9937V10.6553C6.01362 10.116 5.61748 9.42886 5.14748 9.15582Z" fill="url(#paint0_linear)"/>
<path d="M5.99566 7.68734C6.53504 7.99843 7.41684 7.99843 7.95398 7.68734L12.2354 5.21427C12.7748 4.90317 12.7748 4.39513 12.2354 4.08404L7.95622 1.6132C7.41684 1.30211 6.53504 1.30211 5.9979 1.6132L1.71422 4.08404C1.17485 4.39513 1.17485 4.90317 1.71422 5.21427L5.99566 7.68734Z" fill="#3D56A6"/>
<path opacity="0.3" d="M1.82843 5.0198L2.21337 5.2436L6.07182 3.01672C6.29563 2.88691 6.6112 2.81305 6.93795 2.81305C7.26471 2.81305 7.58028 2.88691 7.80409 3.01672L11.7006 5.26598L12.1236 5.02203C12.3093 4.91461 12.4145 4.78032 12.4145 4.65275C12.4145 4.52518 12.3093 4.3909 12.1236 4.28347L7.84214 1.80816C7.61833 1.67835 7.30276 1.60449 6.976 1.60449C6.64924 1.60449 6.33367 1.67835 6.10987 1.80816L1.82843 4.28123C1.64267 4.38866 1.53748 4.52294 1.53748 4.65051C1.53748 4.77808 1.64267 4.91237 1.82843 5.0198Z" fill="url(#paint1_linear)"/>
<path d="M8.69048 8.96021C8.15111 9.27131 7.71021 10.0345 7.71021 10.6567V15.6006C7.71021 16.2228 8.15111 16.4779 8.69048 16.1668L12.9719 13.6937C13.5113 13.3827 13.9522 12.6195 13.9522 11.9973V7.05337C13.9522 6.43119 13.5113 6.17605 12.9719 6.48714L8.69048 8.96021Z" fill="url(#paint2_linear)"/>
<path opacity="0.3" d="M13.4083 6.58203C13.3143 6.58203 13.2024 6.61784 13.0861 6.68498L8.80461 9.15582C8.33462 9.42663 7.93848 10.1137 7.93848 10.6576V11.7699C7.93848 11.2283 8.33462 10.5412 8.80461 10.2681L13.0861 7.79507C13.2024 7.72793 13.3143 7.69212 13.4083 7.69212C13.6948 7.69212 13.7261 8.02335 13.7261 8.16435V7.05203C13.7261 6.91327 13.6948 6.58203 13.4083 6.58203Z" fill="url(#paint3_linear)"/>
<defs>
<linearGradient id="paint0_linear" x1="0.226086" y1="9.28907" x2="6.01442" y2="9.28907" gradientUnits="userSpaceOnUse">
<stop stop-color="white" stop-opacity="0.4"/>
<stop offset="1" stop-color="white" stop-opacity="0"/>
</linearGradient>
<linearGradient id="paint1_linear" x1="1.53671" y1="3.43463" x2="12.4149" y2="3.43463" gradientUnits="userSpaceOnUse">
<stop stop-color="white" stop-opacity="0.4"/>
<stop offset="1" stop-color="white" stop-opacity="0"/>
</linearGradient>
<linearGradient id="paint2_linear" x1="10.8312" y1="6.35449" x2="10.8312" y2="16.2995" gradientUnits="userSpaceOnUse">
<stop stop-color="#FFC061"/>
<stop offset="1" stop-color="#FEAC31"/>
</linearGradient>
<linearGradient id="paint3_linear" x1="7.93727" y1="9.17601" x2="13.7256" y2="9.17601" gradientUnits="userSpaceOnUse">
<stop stop-color="white" stop-opacity="0.4"/>
<stop offset="1" stop-color="white" stop-opacity="0"/>
</linearGradient>
</defs>
</svg>
