<svg width="181" height="60" viewBox="0 0 181 60" fill="none" xmlns="http://www.w3.org/2000/svg">
<path d="M129.171 10.7545V12.5996V16.4705V38.2312C129.171 43.7084 124.726 48.7986 119.261 49.2179C112.552 49.7341 106.997 44.0439 107.732 37.2957C108.255 32.5152 112.01 28.5798 116.771 27.8702C119.274 27.496 121.655 27.9927 123.642 29.1024C124.513 29.5862 125.584 28.9927 125.584 27.9927V19.1543C125.584 18.5801 125.196 18.0769 124.648 17.9092C122.087 17.135 119.319 16.8253 116.455 17.0834C106.087 17.9995 97.7715 26.4379 96.978 36.8118C96.0167 49.405 105.92 59.9338 118.306 59.9983C130.196 60.0563 139.925 49.9147 139.925 38.0247V16.464V12.5932V0C133.99 0 129.171 4.81922 129.171 10.7545Z" fill="white"/>
<path d="M68.9593 27.728C74.8946 27.728 79.7203 32.5536 79.7203 38.4889C79.7203 44.4242 74.8946 49.2499 68.9593 49.2499C63.024 49.2499 58.1919 44.4307 58.1919 38.4954C58.1919 32.5601 63.024 27.728 68.9593 27.728ZM68.9593 16.9863C57.0823 16.9863 47.4567 26.6119 47.4567 38.4889C47.4567 50.366 57.0823 59.998 68.9593 59.998C80.8364 59.998 90.4619 50.3724 90.4619 38.4954C90.4619 26.6183 80.8364 16.9863 68.9593 16.9863Z" fill="white"/>
<path d="M159.053 59.998H150.892C150.183 59.998 149.602 59.4174 149.602 58.7077V18.2766C149.602 17.567 150.183 16.9863 150.892 16.9863H159.053C159.763 16.9863 160.344 17.567 160.344 18.2766V58.7077C160.344 59.4174 159.763 59.998 159.053 59.998Z" fill="white"/>
<path d="M179.472 59.998H171.311C170.601 59.998 170.021 59.4174 170.021 58.7077V18.2766C170.021 17.567 170.601 16.9863 171.311 16.9863H179.472C180.182 16.9863 180.762 17.567 180.762 18.2766V58.7077C180.762 59.4174 180.182 59.998 179.472 59.998Z" fill="white"/>
<path d="M159.053 13.7604H150.892C150.183 13.7604 149.602 13.1798 149.602 12.4702V6.29614C149.602 5.58649 150.183 5.00586 150.892 5.00586H159.053C159.763 5.00586 160.344 5.58649 160.344 6.29614V12.4766C160.344 13.1863 159.763 13.7604 159.053 13.7604Z" fill="white"/>
<path d="M179.472 13.7604H171.311C170.601 13.7604 170.021 13.1798 170.021 12.4702V6.29614C170.021 5.58649 170.601 5.00586 171.311 5.00586H179.472C180.182 5.00586 180.762 5.58649 180.762 6.29614V12.4766C180.762 13.1863 180.182 13.7604 179.472 13.7604Z" fill="white"/>
<path d="M17.9866 43.7344C17.9866 41.9409 16.7156 39.741 15.1609 38.8442L2.82572 31.7154C1.27093 30.8186 0 31.5541 0 33.3476V47.5988C0 49.3923 1.27093 51.5922 2.82572 52.489L15.1673 59.6178C16.7221 60.5145 17.993 59.7791 17.993 57.9856V43.7344H17.9866Z" fill="white"/>
<path opacity="0.3" d="M14.8381 39.4055L2.49647 32.2831C2.161 32.0896 1.83843 31.9863 1.56747 31.9863C0.741687 31.9863 0.651367 32.9411 0.651367 33.3476V37.2055C0.651367 36.7991 0.741687 35.8443 1.56747 35.8443C1.83843 35.8443 2.161 35.9475 2.49647 36.141L14.8381 43.2634C16.1929 44.044 17.3348 46.0246 17.3348 47.5859V43.7279C17.3348 42.1731 16.1929 40.1925 14.8381 39.4055Z" fill="url(#paint0_linear_3915_150100)"/>
<path d="M17.2832 35.1734C18.838 36.0702 21.3798 36.0702 22.9282 35.1734L35.2698 28.0446C36.8246 27.1479 36.8246 25.6834 35.2698 24.7866L22.9346 17.6643C21.3798 16.7675 18.838 16.7675 17.2896 17.6643L4.94161 24.7866C3.38681 25.6834 3.38681 27.1479 4.94161 28.0446L17.2832 35.1734Z" fill="white"/>
<path opacity="0.3" d="M5.271 27.4835L6.38064 28.1287L17.5029 21.7095C18.148 21.3353 19.0577 21.1224 19.9996 21.1224C20.9415 21.1224 21.8512 21.3353 22.4963 21.7095L33.7282 28.1932L34.9476 27.49C35.483 27.1803 35.7862 26.7932 35.7862 26.4255C35.7862 26.0578 35.483 25.6707 34.9476 25.361L22.606 18.2258C21.9608 17.8516 21.0512 17.6387 20.1093 17.6387C19.1674 17.6387 18.2577 17.8516 17.6126 18.2258L5.271 25.3546C4.73553 25.6642 4.43231 26.0513 4.43231 26.4191C4.43231 26.7868 4.73553 27.1739 5.271 27.4835Z" fill="url(#paint1_linear_3915_150100)"/>
<path d="M25.0508 38.8442C23.496 39.741 22.2251 41.9409 22.2251 43.7344V57.9856C22.2251 59.7791 23.496 60.5145 25.0508 59.6178L37.3924 52.489C38.9472 51.5922 40.2181 49.3923 40.2181 47.5988V33.3476C40.2181 31.5541 38.9472 30.8186 37.3924 31.7154L25.0508 38.8442Z" fill="url(#paint2_linear_3915_150100)"/>
<path opacity="0.3" d="M38.6502 31.9863C38.3793 31.9863 38.0567 32.0896 37.7212 32.2831L25.3796 39.4055C24.0248 40.1861 22.8829 42.1667 22.8829 43.7344V46.9407C22.8829 45.3795 24.0248 43.3989 25.3796 42.6118L37.7212 35.483C38.0567 35.2895 38.3793 35.1862 38.6502 35.1862C39.476 35.1862 39.5663 36.141 39.5663 36.5475V33.3411C39.5663 32.9411 39.476 31.9863 38.6502 31.9863Z" fill="url(#paint3_linear_3915_150100)"/>
<defs>
<linearGradient id="paint0_linear_3915_150100" x1="0.651754" y1="39.7896" x2="17.3371" y2="39.7896" gradientUnits="userSpaceOnUse">
<stop stop-color="white" stop-opacity="0.4"/>
<stop offset="1" stop-color="white" stop-opacity="0"/>
</linearGradient>
<linearGradient id="paint1_linear_3915_150100" x1="4.43012" y1="22.9142" x2="35.7873" y2="22.9142" gradientUnits="userSpaceOnUse">
<stop stop-color="white" stop-opacity="0.4"/>
<stop offset="1" stop-color="white" stop-opacity="0"/>
</linearGradient>
<linearGradient id="paint2_linear_3915_150100" x1="31.2216" y1="31.333" x2="31.2216" y2="60.0002" gradientUnits="userSpaceOnUse">
<stop stop-color="#FFC061"/>
<stop offset="1" stop-color="#FEAC31"/>
</linearGradient>
<linearGradient id="paint3_linear_3915_150100" x1="22.8795" y1="39.4637" x2="39.5647" y2="39.4637" gradientUnits="userSpaceOnUse">
<stop stop-color="white" stop-opacity="0.4"/>
<stop offset="1" stop-color="white" stop-opacity="0"/>
</linearGradient>
</defs>
</svg>
