<svg width="83" height="40" viewBox="0 0 83 40" fill="none" xmlns="http://www.w3.org/2000/svg">
<rect width="82.2857" height="40" rx="4" fill="#3D56A6"/>
<path fill-rule="evenodd" clip-rule="evenodd" d="M19.8812 30.8417C24.1463 30.8417 27.6039 27.3841 27.6039 23.119C27.6039 18.8538 24.1463 15.3962 19.8812 15.3962C15.616 15.3962 12.1584 18.8538 12.1584 23.119C12.1584 27.3841 15.616 30.8417 19.8812 30.8417ZM19.8812 35.0002C26.443 35.0002 31.7624 29.6808 31.7624 23.119C31.7624 16.5572 26.443 11.2378 19.8812 11.2378C13.3194 11.2378 8 16.5572 8 23.119C8 29.6808 13.3194 35.0002 19.8812 35.0002Z" fill="white"/>
<path fill-rule="evenodd" clip-rule="evenodd" d="M47.2038 30.8417C51.469 30.8417 54.9266 27.3841 54.9266 23.119C54.9266 18.8538 51.469 15.3962 47.2038 15.3962C42.9386 15.3962 39.481 18.8538 39.481 23.119C39.481 27.3841 42.9386 30.8417 47.2038 30.8417ZM47.2038 35.0002C53.7656 35.0002 59.085 29.6808 59.085 23.119C59.085 16.5572 53.7656 11.2378 47.2038 11.2378C40.642 11.2378 35.3226 16.5572 35.3226 23.119C35.3226 29.6808 40.642 35.0002 47.2038 35.0002Z" fill="white"/>
<path d="M54.9266 5.59406C54.9266 5.26597 55.1926 5 55.5207 5H58.491C58.8191 5 59.085 5.26597 59.085 5.59406V22.8218C59.085 23.1499 58.8191 23.4158 58.491 23.4158H55.5207C55.1926 23.4158 54.9266 23.1499 54.9266 22.8218V5.59406Z" fill="white"/>
<path d="M62.6451 5.59406C62.6451 5.26597 62.9111 5 63.2392 5H66.2095C66.5376 5 66.8036 5.26597 66.8036 5.59406V8.26733C66.8036 8.59541 66.5376 8.86138 66.2095 8.86138H63.2392C62.9111 8.86138 62.6451 8.59541 62.6451 8.26733V5.59406Z" fill="white"/>
<path d="M62.6451 13.911C62.6451 13.5829 62.9111 13.3169 63.2392 13.3169H66.2095C66.5376 13.3169 66.8036 13.5829 66.8036 13.911V34.406C66.8036 34.7341 66.5376 35.0001 66.2095 35.0001H63.2392C62.9111 35.0001 62.6451 34.7341 62.6451 34.406V13.911Z" fill="white"/>
<path d="M70.3639 5.59406C70.3639 5.26597 70.6299 5 70.958 5H73.9282C74.2563 5 74.5223 5.26597 74.5223 5.59406V8.26733C74.5223 8.59541 74.2563 8.86138 73.9282 8.86138H70.958C70.6299 8.86138 70.3639 8.59541 70.3639 8.26733V5.59406Z" fill="white"/>
<path d="M70.3639 13.911C70.3639 13.5829 70.6299 13.3169 70.958 13.3169H73.9282C74.2563 13.3169 74.5223 13.5829 74.5223 13.911V34.406C74.5223 34.7341 74.2563 35.0001 73.9282 35.0001H70.958C70.6299 35.0001 70.3639 34.7341 70.3639 34.406V13.911Z" fill="white"/>
</svg>
