<svg width="121" height="40" viewBox="0 0 121 40" fill="none" xmlns="http://www.w3.org/2000/svg">
<path d="M86.1137 7.16969V8.39976V10.9803V25.4874C86.1137 29.1389 83.1503 32.5324 79.5074 32.812C75.0344 33.156 71.3313 29.3626 71.8216 24.8638C72.17 21.6768 74.6731 19.0532 77.8472 18.5801C79.516 18.3307 81.103 18.6618 82.4277 19.4016C83.0084 19.7242 83.7223 19.3285 83.7223 18.6618V12.7695C83.7223 12.3867 83.4643 12.0513 83.0987 11.9394C81.3912 11.4233 79.5461 11.2169 77.6365 11.3889C70.7248 11.9997 65.1809 17.6253 64.6519 24.5412C64.0111 32.9367 70.613 39.9558 78.8709 39.9988C86.7975 40.0376 93.2833 33.2765 93.2833 25.3498V10.976V8.39546V0C89.3265 0 86.1137 3.21281 86.1137 7.16969Z" fill="#3D56A6"/>
<path d="M45.9729 18.4855C49.9298 18.4855 53.1469 21.7027 53.1469 25.6595C53.1469 29.6164 49.9298 32.8335 45.9729 32.8335C42.016 32.8335 38.7946 29.6207 38.7946 25.6638C38.7946 21.707 42.016 18.4855 45.9729 18.4855ZM45.9729 11.3245C38.0548 11.3245 31.6378 17.7415 31.6378 25.6595C31.6378 33.5776 38.0548 39.9989 45.9729 39.9989C53.8909 39.9989 60.308 33.5819 60.308 25.6638C60.308 17.7458 53.8909 11.3245 45.9729 11.3245Z" fill="#3D56A6"/>
<path d="M106.036 39.9989H100.595C100.122 39.9989 99.7347 39.6118 99.7347 39.1387V12.1847C99.7347 11.7115 100.122 11.3245 100.595 11.3245H106.036C106.509 11.3245 106.896 11.7115 106.896 12.1847V39.1387C106.896 39.6118 106.509 39.9989 106.036 39.9989Z" fill="#3D56A6"/>
<path d="M119.648 39.9989H114.207C113.734 39.9989 113.347 39.6118 113.347 39.1387V12.1847C113.347 11.7115 113.734 11.3245 114.207 11.3245H119.648C120.121 11.3245 120.508 11.7115 120.508 12.1847V39.1387C120.508 39.6118 120.121 39.9989 119.648 39.9989Z" fill="#3D56A6"/>
<path d="M106.036 9.17391H100.595C100.122 9.17391 99.7347 8.78683 99.7347 8.31372V4.19771C99.7347 3.72461 100.122 3.33752 100.595 3.33752H106.036C106.509 3.33752 106.896 3.72461 106.896 4.19771V8.31803C106.896 8.79113 106.509 9.17391 106.036 9.17391Z" fill="#3D56A6"/>
<path d="M119.648 9.17391H114.207C113.734 9.17391 113.347 8.78683 113.347 8.31372V4.19771C113.347 3.72461 113.734 3.33752 114.207 3.33752H119.648C120.121 3.33752 120.508 3.72461 120.508 4.19771V8.31803C120.508 8.79113 120.121 9.17391 119.648 9.17391Z" fill="#3D56A6"/>
<path d="M11.991 29.1561C11.991 27.9605 11.1438 26.4938 10.1072 25.896L1.88382 21.1435C0.847287 20.5456 0 21.0359 0 22.2316V31.7324C0 32.9281 0.847287 34.3947 1.88382 34.9925L10.1115 39.7451C11.1481 40.3429 11.9954 39.8526 11.9954 38.6569V29.1561H11.991Z" fill="#3D56A6"/>
<path opacity="0.3" d="M9.89199 26.2702L1.66428 21.5219C1.44063 21.3929 1.22558 21.3241 1.04494 21.3241C0.494417 21.3241 0.434204 21.9606 0.434204 22.2316V24.8036C0.434204 24.5326 0.494417 23.8961 1.04494 23.8961C1.22558 23.8961 1.44063 23.9649 1.66428 24.0939L9.89199 28.8422C10.7952 29.3626 11.5565 30.683 11.5565 31.7238V29.1518C11.5565 28.1153 10.7952 26.7949 9.89199 26.2702Z" fill="url(#paint0_linear)"/>
<path d="M11.5222 23.4488C12.5587 24.0466 14.2533 24.0466 15.2855 23.4488L23.5133 18.6962C24.5498 18.0984 24.5498 17.1221 23.5133 16.5243L15.2898 11.776C14.2533 11.1782 12.5587 11.1782 11.5265 11.776L3.29449 16.5243C2.25796 17.1221 2.25796 18.0984 3.29449 18.6962L11.5222 23.4488Z" fill="#3D56A6"/>
<path opacity="0.3" d="M3.51396 18.322L4.25372 18.7521L11.6686 14.4727C12.0987 14.2232 12.7051 14.0813 13.333 14.0813C13.961 14.0813 14.5674 14.2232 14.9975 14.4727L22.4855 18.7951L23.2983 18.3263C23.6553 18.1199 23.8575 17.8618 23.8575 17.6167C23.8575 17.3715 23.6553 17.1135 23.2983 16.907L15.0706 12.1502C14.6405 11.9007 14.0341 11.7588 13.4061 11.7588C12.7782 11.7588 12.1718 11.9007 11.7417 12.1502L3.51396 16.9027C3.15698 17.1092 2.95483 17.3672 2.95483 17.6124C2.95483 17.8575 3.15698 18.1156 3.51396 18.322Z" fill="url(#paint1_linear)"/>
<path d="M16.7006 25.896C15.6641 26.4938 14.8168 27.9605 14.8168 29.1561V38.6569C14.8168 39.8526 15.6641 40.3429 16.7006 39.7451L24.9283 34.9925C25.9648 34.3947 26.8121 32.9281 26.8121 31.7324V22.2316C26.8121 21.0359 25.9648 20.5456 24.9283 21.1435L16.7006 25.896Z" fill="url(#paint2_linear)"/>
<path opacity="0.3" d="M25.7669 21.3241C25.5863 21.3241 25.3712 21.3929 25.1476 21.5219L16.9198 26.2702C16.0166 26.7906 15.2554 28.111 15.2554 29.1561V31.2937C15.2554 30.2529 16.0166 28.9325 16.9198 28.4078L25.1476 23.6552C25.3712 23.5262 25.5863 23.4574 25.7669 23.4574C26.3174 23.4574 26.3776 24.0939 26.3776 24.3649V22.2273C26.3776 21.9606 26.3174 21.3241 25.7669 21.3241Z" fill="url(#paint3_linear)"/>
<defs>
<linearGradient id="paint0_linear" x1="0.434462" y1="26.5263" x2="11.558" y2="26.5263" gradientUnits="userSpaceOnUse">
<stop stop-color="white" stop-opacity="0.4"/>
<stop offset="1" stop-color="white" stop-opacity="0"/>
</linearGradient>
<linearGradient id="paint1_linear" x1="2.95337" y1="15.2758" x2="23.8582" y2="15.2758" gradientUnits="userSpaceOnUse">
<stop stop-color="white" stop-opacity="0.4"/>
<stop offset="1" stop-color="white" stop-opacity="0"/>
</linearGradient>
<linearGradient id="paint2_linear" x1="20.8145" y1="20.8885" x2="20.8145" y2="40" gradientUnits="userSpaceOnUse">
<stop stop-color="#FFC061"/>
<stop offset="1" stop-color="#FEAC31"/>
</linearGradient>
<linearGradient id="paint3_linear" x1="15.253" y1="26.309" x2="26.3766" y2="26.309" gradientUnits="userSpaceOnUse">
<stop stop-color="white" stop-opacity="0.4"/>
<stop offset="1" stop-color="white" stop-opacity="0"/>
</linearGradient>
</defs>
</svg>
