<svg width="189" height="73" viewBox="0 0 189 73" fill="none" xmlns="http://www.w3.org/2000/svg">
<g clip-path="url(#clip0)">
<path d="M166.488 23.0681C166.377 22.359 165.707 21.8762 164.991 21.9861C164.275 22.096 163.788 22.7599 163.899 23.469C164.086 24.6782 164.325 28.4652 163.007 29.989C162.722 30.3188 162.376 30.5171 161.943 30.5947L162.063 23.3807C162.08 22.3331 161.227 21.4731 160.17 21.4731C159.106 21.4731 158.251 22.3418 158.277 23.3957L158.619 37.0845C158.164 37.0113 157.805 36.813 157.512 36.4724C156.193 34.9486 156.433 31.1616 156.62 29.9524C156.731 29.2433 156.243 28.5794 155.528 28.4695C154.812 28.3596 154.142 28.8424 154.031 29.5515C153.937 30.1464 153.18 35.4508 155.519 38.1601C156.324 39.0912 157.414 39.6193 158.684 39.7012L158.832 45.6608H161.691L161.897 33.2113C163.14 33.1143 164.206 32.5906 164.998 31.6745C167.338 28.9674 166.581 23.6652 166.488 23.0681Z" fill="#C3D1EB"/>
<path d="M33.1214 31.1971C33.0496 30.7466 32.6232 30.4362 32.1664 30.5073C31.7117 30.5785 31.3984 31.0009 31.4702 31.4536C31.5899 32.2252 31.7421 34.6392 30.9024 35.6091C30.7197 35.8204 30.5 35.9454 30.2237 35.9949L30.2998 31.3975C30.3107 30.7294 29.7668 30.1819 29.0924 30.1819C28.4137 30.1819 27.8698 30.7358 27.885 31.4083L28.1026 40.1354C27.8133 40.0902 27.5848 39.963 27.3956 39.7453C26.5537 38.7732 26.7081 36.3592 26.8278 35.5897C26.8996 35.1393 26.5863 34.7146 26.1316 34.6435C25.6748 34.5724 25.2484 34.8828 25.1766 35.3332C25.1157 35.7126 24.6349 39.0944 26.1251 40.8208C26.6385 41.4157 27.3325 41.752 28.1439 41.8037L28.2396 45.6015H30.0627L30.1954 37.6654C30.9873 37.605 31.6682 37.2688 32.1707 36.6847C33.6653 34.9582 33.1823 31.5786 33.1214 31.1971Z" fill="#C3D1EB"/>
<path d="M94.2805 100.546C146.35 100.546 188.561 85.7413 188.561 67.4784C188.561 49.2156 146.35 34.4106 94.2805 34.4106C42.2108 34.4106 0 49.2156 0 67.4784C0 85.7413 42.2108 100.546 94.2805 100.546Z" fill="url(#paint0_linear)"/>
</g>
<g clip-path="url(#clip1)">
<path d="M96.0013 56C88.5211 56 81.4903 53.0862 76.2021 47.7979C70.9138 42.5097 68 35.4789 68 28.0013C68 20.5237 70.9138 13.4903 76.2021 8.20209C81.4903 2.91383 88.5211 0 96.0013 0C103.482 0 110.512 2.91383 115.801 8.20209C121.089 13.4903 124.003 20.5211 124.003 28.0013C124.003 35.4816 121.091 42.5123 115.801 47.8006C110.51 53.0888 103.479 56 96.0013 56Z" fill="#ECF4FA"/>
<path d="M96.0014 51.788C109.138 51.788 119.788 41.1384 119.788 28.0014C119.788 14.8645 109.138 4.21484 96.0014 4.21484C82.8645 4.21484 72.2148 14.8645 72.2148 28.0014C72.2148 41.1384 82.8645 51.788 96.0014 51.788Z" fill="#9FB7C7"/>
<path d="M96.0014 3.36865C95.5334 3.36865 95.1553 3.74676 95.1553 4.21477V7.97208C95.1553 8.44009 95.5334 8.8182 96.0014 8.8182C96.4694 8.8182 96.8475 8.44009 96.8475 7.97208V4.21477C96.8449 3.74676 96.4668 3.36865 96.0014 3.36865Z" fill="#ECF4FA"/>
<path d="M84.8377 6.97791C84.6051 6.57336 84.0868 6.43586 83.6823 6.66855C83.2777 6.90123 83.1402 7.41948 83.3729 7.82403L85.2529 11.079C85.4089 11.3513 85.6944 11.502 85.9853 11.502C86.1281 11.502 86.2735 11.465 86.4084 11.3883C86.8129 11.1556 86.9504 10.6374 86.7177 10.2328L84.8377 6.97791Z" fill="#ECF4FA"/>
<path d="M79.0763 17.2529L75.8213 15.3729C75.4168 15.1402 74.9012 15.2777 74.6659 15.6823C74.4332 16.0868 74.5707 16.6024 74.9752 16.8377L78.2301 18.7177C78.3624 18.7944 78.5078 18.8314 78.6532 18.8314C78.9441 18.8314 79.2296 18.6807 79.3856 18.4084C79.621 18.0038 79.4808 17.4882 79.0763 17.2529Z" fill="#ECF4FA"/>
<path d="M76.8156 28.0014C76.8156 27.5334 76.4374 27.1553 75.9694 27.1553H72.2148C71.7468 27.1553 71.3687 27.5334 71.3687 28.0014C71.3687 28.4694 71.7468 28.8475 72.2148 28.8475H75.9721C76.4374 28.8449 76.8156 28.4668 76.8156 28.0014Z" fill="#ECF4FA"/>
<path d="M78.2326 37.2821L74.9777 39.162C74.5731 39.3947 74.4356 39.913 74.6683 40.3175C74.8243 40.5899 75.1099 40.7406 75.4007 40.7406C75.5435 40.7406 75.6889 40.7036 75.8238 40.6269L79.0787 38.7469C79.4833 38.5142 79.6208 37.996 79.3881 37.5914C79.1527 37.1869 78.6371 37.0494 78.2326 37.2821Z" fill="#ECF4FA"/>
<path d="M86.4084 44.6143C86.0038 44.3817 85.4882 44.5192 85.2529 44.9237L83.3729 48.1786C83.1402 48.5832 83.2777 49.0988 83.6823 49.3341C83.8145 49.4108 83.9599 49.4478 84.1053 49.4478C84.3962 49.4478 84.6817 49.2971 84.8377 49.0248L86.7177 45.7698C86.9504 45.3653 86.8129 44.847 86.4084 44.6143Z" fill="#ECF4FA"/>
<path d="M96.0014 47.1846C95.5334 47.1846 95.1553 47.5627 95.1553 48.0307V51.788C95.1553 52.256 95.5334 52.6341 96.0014 52.6341C96.4694 52.6341 96.8475 52.256 96.8475 51.788V48.0307C96.8449 47.5627 96.4668 47.1846 96.0014 47.1846Z" fill="#ECF4FA"/>
<path d="M106.747 44.9237C106.514 44.5192 105.996 44.3817 105.591 44.6143C105.187 44.847 105.049 45.3653 105.282 45.7698L107.162 49.0248C107.318 49.2971 107.604 49.4478 107.894 49.4478C108.037 49.4478 108.183 49.4108 108.318 49.3341C108.722 49.1014 108.86 48.5832 108.627 48.1786L106.747 44.9237Z" fill="#ECF4FA"/>
<path d="M117.022 39.162L113.77 37.2821C113.366 37.0494 112.85 37.1869 112.615 37.5914C112.382 37.996 112.519 38.5116 112.924 38.7469L116.179 40.6269C116.311 40.7036 116.457 40.7406 116.602 40.7406C116.893 40.7406 117.178 40.5899 117.334 40.3175C117.564 39.913 117.427 39.3947 117.022 39.162Z" fill="#ECF4FA"/>
<path d="M119.788 27.1553H116.031C115.563 27.1553 115.185 27.5334 115.185 28.0014C115.185 28.4694 115.563 28.8475 116.031 28.8475H119.788C120.256 28.8475 120.634 28.4694 120.634 28.0014C120.634 27.5334 120.253 27.1553 119.788 27.1553Z" fill="#ECF4FA"/>
<path d="M113.347 18.8314C113.49 18.8314 113.635 18.7944 113.77 18.7177L117.025 16.8377C117.43 16.6051 117.567 16.0868 117.334 15.6823C117.102 15.2777 116.583 15.1402 116.179 15.3729L112.924 17.2529C112.519 17.4855 112.382 18.0038 112.615 18.4084C112.771 18.6781 113.056 18.8314 113.347 18.8314Z" fill="#ECF4FA"/>
<path d="M108.315 6.66855C107.91 6.43586 107.395 6.57336 107.159 6.97791L105.282 10.2328C105.049 10.6374 105.187 11.153 105.591 11.3883C105.724 11.465 105.869 11.502 106.014 11.502C106.305 11.502 106.591 11.3513 106.747 11.079L108.627 7.82403C108.86 7.41948 108.719 6.90123 108.315 6.66855Z" fill="#ECF4FA"/>
<path d="M94.8726 8.14658C95.375 7.27666 96.6283 7.27666 97.1307 8.14658L98.4184 10.3782L100.835 14.5665H96.0016H91.1655L93.5823 10.3782L94.8726 8.14658Z" fill="#EB5757"/>
<path d="M95.9513 43.7146C104.658 43.7146 111.716 36.6567 111.716 27.9503C111.716 19.2439 104.658 12.186 95.9513 12.186C87.2449 12.186 80.187 19.2439 80.187 27.9503C80.187 36.6567 87.2449 43.7146 95.9513 43.7146Z" fill="#ECF4FA"/>
<path d="M95.951 12.1841C95.1869 12.1841 94.4333 12.2396 93.6982 12.3454C101.337 13.44 107.21 20.0081 107.21 27.9484C107.21 35.8887 101.337 42.4594 93.6982 43.5514C94.4333 43.6571 95.1869 43.7127 95.951 43.7127C104.658 43.7127 111.715 36.6555 111.715 27.9484C111.715 19.2413 104.658 12.1841 95.951 12.1841Z" fill="#E4EFF7"/>
<path d="M84.6928 28.7945C84.2248 28.7945 83.8467 28.4164 83.8467 27.9484C83.8467 21.2746 89.2751 15.8462 95.9489 15.8462C96.4169 15.8462 96.795 16.2243 96.795 16.6923C96.795 17.1603 96.4169 17.5384 95.9489 17.5384C90.2058 17.5384 85.5363 22.2106 85.5363 27.951C85.5389 28.4164 85.1608 28.7945 84.6928 28.7945Z" fill="#CAD7E0"/>
</g>
<defs>
<linearGradient id="paint0_linear" x1="94.7139" y1="34.5095" x2="94.7139" y2="67.529" gradientUnits="userSpaceOnUse">
<stop stop-color="#E9F0FB"/>
<stop offset="1" stop-color="#F7FAFF" stop-opacity="0"/>
</linearGradient>
<clipPath id="clip0">
<rect width="189" height="55" fill="white" transform="translate(0 18)"/>
</clipPath>
<clipPath id="clip1">
<rect width="56" height="56" fill="white" transform="translate(68)"/>
</clipPath>
</defs>
</svg>
