<svg width="1224" height="281" viewBox="0 0 1224 281" fill="none" xmlns="http://www.w3.org/2000/svg">
<path d="M640.87 46.4562C633.755 37.1864 617.614 32.1391 603.416 27.6231C603.399 27.6231 603.399 27.6231 603.399 27.6231C595.582 25.1344 588.336 22.8134 583.538 20.0591C583.522 20.0591 583.522 20.0591 583.505 20.0451C580.062 18.0597 577.875 15.8506 577.63 13.1802C576.39 0.0515003 599.678 -8.3514 599.678 -8.3514L590.099 -10.4906L592.236 -17.2437C592.236 -17.2437 570.302 -7.38667 567.283 8.52431C566.63 11.9358 566.859 15.6269 568.344 19.5557C576.488 40.9894 625.35 40.6958 632.514 49.5461C632.645 49.7139 632.71 49.8118 632.71 49.8118C632.89 50.0634 633.036 50.3291 633.151 50.6087C637.133 60.5775 624.632 75.7056 624.632 75.7056L635.305 73.2867L636.643 82.151C636.643 82.151 654.758 64.5063 640.87 46.4562Z" fill="#58A1FF"/>
<path d="M632.514 49.5322C631.029 47.4769 620.796 34.0826 603.416 27.6231C603.399 27.6231 603.399 27.6231 603.399 27.6231C596.235 24.9527 589.527 22.7855 583.538 20.0591C583.522 20.0591 583.522 20.0591 583.505 20.0451C577.255 17.2209 571.771 13.7674 567.283 8.53833C566.63 11.9498 566.859 15.6409 568.344 19.5698C576.488 40.9755 625.35 40.6819 632.514 49.5322Z" fill="#83BEFF"/>
<path d="M1146.32 23.4986C1146.32 23.4986 1149.03 18.0458 1149.97 12.593C1149.97 12.593 1152.68 15.2215 1152.81 15.8227L1156.11 13.8933C1156.11 13.8933 1154.46 22.7156 1152.68 25.1065L1151.21 22.7995L1146.32 23.4986Z" fill="#01D8AE"/>
<path d="M680.936 -38.09C680.936 -38.09 675.925 -38.5934 665.35 -22.6125C662.429 -18.1943 667.814 -3.1362 691.25 16.2422C711.666 33.1179 725.163 62.5071 725.163 62.5071C725.163 62.5071 730.124 52.6641 726.925 44.359C726.925 44.359 735.738 45.2539 740.487 49.8817C740.487 49.8817 739.149 35.285 719.059 16.5498C699.002 -2.18547 670.948 -25.6185 680.936 -38.09Z" fill="#AC94FF"/>
<path d="M149.279 27.5672C149.279 27.5672 167.688 9.60094 190.471 2.20471L189.426 9.99243C189.426 9.99243 193.914 10.1602 200.263 13.9073C200.263 13.9073 172.992 28.8955 160.719 38.3889C160.719 38.3889 161.209 29.9301 161.486 27.5392L149.279 27.5672Z" fill="#DC911B"/>
<path d="M833.022 -11.3154C841.28 -7.88995 854.221 -3.52772 868.485 4.20407C882.586 11.824 897.959 22.7715 911.423 39.3816C912.533 40.7378 913.561 42.08 914.524 43.4223C933.39 69.3161 928.837 90.1206 928.837 90.1206C928.053 95.9369 922.047 109.261 922.047 109.261L916.988 96.7898L906.38 105.71C906.38 105.71 906.38 105.696 906.397 105.668C906.772 104.577 915.797 78.2083 899.248 50.8884C882.847 23.8062 826.412 3.15545 823.148 1.981C823.05 1.95304 823.001 1.92508 823.001 1.92508L837.265 -0.619556L833.022 -11.3154Z" fill="#01D8AE"/>
<path d="M823.132 1.96705C830.035 0.722693 848.673 -1.68213 868.485 4.19011C882.586 11.81 897.959 22.7576 911.423 39.3676C912.533 40.7239 913.561 42.0661 914.524 43.4083C927.449 74.4193 907.147 104.55 906.38 105.654C906.756 104.564 915.78 78.1943 899.232 50.8744C882.83 23.8062 826.396 3.15548 823.132 1.96705Z" fill="#00C68C"/>
<path d="M352.512 71.595L369.322 58.4664L346.49 56.6068L352.512 71.595Z" fill="#AC94FF"/>
<path d="M828.452 62.3392L805.082 56.3691L815.461 74.9506L828.452 62.3392Z" fill="#AC94FF"/>
<path d="M136.941 153.974L129.842 134.316L151.956 143.055L136.941 153.974Z" fill="#F7EA3A"/>
<path d="M995.814 5.02905C995.814 5.02905 985.287 -2.12949 986.593 -13.2308C987.899 -24.3322 1011.97 -35.2517 1005.41 -50.5895C1005.41 -50.5895 1016.7 -39.2505 1017.86 -29.9108C1019.02 -20.5711 994.541 -2.94043 995.814 5.02905Z" fill="#AC94FF"/>
<path d="M1078.46 16.4799C1078.46 16.4799 1072.66 4.41389 1053.64 3.29537C1034.61 2.16286 1008.35 10.1463 995.814 5.04306C983.28 -0.0601978 988.747 -18.5018 988.747 -18.5018C988.747 -18.5018 978.613 -11.5111 984.814 7.92325C991.016 27.3716 1025.11 22.5759 1047.29 20.8981C1069.47 19.2203 1075.28 23.3728 1076.17 28.0566C1076.19 28.0566 1079.67 18.4094 1078.46 16.4799Z" fill="#7264D8"/>
<path d="M989.694 89.7012C989.694 89.7012 985.369 75.5518 1005.56 62.8426C1025.74 50.1334 1071.34 35.6765 1076.19 28.0566C1081.04 20.4367 1075 10.4678 1070 8.03503C1070 8.03503 1085.9 12.8167 1086.26 31.6498C1086.62 50.483 1042.24 63.9192 1025.32 71.637C1008.38 79.3548 993.382 92.092 996.222 100.705C996.222 100.719 990.02 94.329 989.694 89.7012Z" fill="#AC94FF"/>
<path d="M1124.3 169.088C1124.3 169.088 1119.7 146.746 1081.25 137.644C1053.93 131.184 1023.54 122.502 1009.88 111.61C996.222 100.719 986.136 93.1826 990.526 79.6066C990.526 79.6066 976.556 99.5442 1001.54 122.292C1026.53 145.026 1107.75 153.932 1124.3 169.088Z" fill="#7264D8"/>
<path d="M1077.15 233.068C1077.15 233.068 1130.76 187.334 1121.33 162.377C1121.33 162.377 1129.18 174.835 1128.04 188.453C1126.9 202.085 1099.58 240.925 1084.17 247.986L1086.11 236.451L1077.15 233.068Z" fill="#AC94FF"/>
<path d="M386.343 -38.9289C386.343 -38.9289 394.291 -34.2451 387.633 -22.5146C380.974 -10.7841 362.581 -3.16413 360.998 2.27468C359.415 7.7135 366.743 13.3481 366.743 13.3481C366.743 13.3481 353.85 9.88063 350.913 0.513008C347.975 -8.85462 364.785 -20.4313 374.789 -26.2197C384.777 -31.9941 381.855 -41.0261 381.855 -41.0261C381.855 -41.0261 385.56 -40.7325 386.343 -38.9289Z" fill="#7264D8"/>
<path d="M480.51 9.60099C480.51 9.60099 486.597 18.2695 474.275 36.6413C461.954 55.013 456.666 62.2974 458.266 66.8833L451.705 57.5437L444.965 58.6062C444.965 58.6062 445.21 48.19 457.923 34.0966C470.636 20.0032 471.925 5.64422 470.832 1.67346C470.832 1.67346 479.041 4.2181 480.51 9.60099Z" fill="#7264D8"/>
<path d="M366.743 13.3481C366.743 13.3481 375.654 18.9966 395.793 14.2289C415.932 9.47522 441.766 1.32399 460.273 4.13427C478.78 6.94456 481.946 15.3475 481.946 15.3475C481.946 15.3475 483.513 2.61029 462.215 -5.30325C440.901 -13.2168 377.351 10.384 361.047 5.6303C361.047 5.64428 362.435 11.6983 366.743 13.3481Z" fill="#AC94FF"/>
<path d="M1204.3 73.902C1204.3 73.902 1211.35 81.6477 1198.7 93.0706C1186.06 104.494 1161.77 107.695 1157.63 113.428C1153.48 119.174 1159.41 127.815 1159.41 127.815C1159.41 127.815 1146.19 119.971 1146.87 108.38C1147.56 96.7757 1171.73 88.5826 1185.63 84.9753C1199.52 81.3681 1200.07 70.1549 1200.07 70.1549C1200.07 70.1549 1204.17 71.609 1204.3 73.902Z" fill="#01D8AE"/>
<path d="M1206.16 81.1304C1206.16 81.1304 1208.3 71.7069 1188.44 67.7501C1168.58 63.7933 1160.07 69.4698 1160.07 69.4698L1151.2 48.861C1151.21 48.8471 1207.58 50.7485 1206.16 81.1304Z" fill="#379391"/>
<path d="M1224 124.795V138.021C1213.02 137.7 1201.98 137.784 1192.18 137.56C1167.14 136.959 1159.41 127.829 1159.41 127.829C1159.39 127.815 1159.39 127.815 1159.37 127.801C1155.82 125.074 1156.03 119.356 1156.16 117.734C1156.19 117.454 1156.21 117.301 1156.21 117.301C1165.51 123.089 1195.65 123.145 1224 124.795Z" fill="#379391"/>
<path d="M271.483 62.2554C271.483 62.2554 287.118 67.7502 291.622 97.405C296.11 127.046 295.261 134.065 301.071 142.174L287.004 137.224L280.41 143.222C280.41 143.222 274.976 140.846 275.775 109.038C276.396 83.9967 272.936 68.6729 252.503 60.1442C252.503 60.1302 264.4 57.1801 271.483 62.2554Z" fill="#83BEFF"/>
<path d="M279.333 68.1696C279.317 68.1557 279.284 68.1556 279.284 68.1417C278.648 67.7921 272.332 64.4226 260.353 66.0584C255.604 66.7156 249.957 68.1557 243.429 70.8681C227.403 77.5652 208.978 96.9995 195.497 111.918C195.497 111.918 193.539 104.871 193.164 99.1807C193.164 99.1807 182.833 101.362 178.573 101.25C191.711 89.0161 218.1 62.4792 236.101 58.774C268.154 52.1887 279.333 68.1696 279.333 68.1696Z" fill="#58A1FF"/>
<path d="M67.0589 76.2369C64.007 76.2369 61.5427 74.1536 61.5427 71.595C61.5427 69.0364 64.007 66.9531 67.0589 66.9531C70.1107 66.9531 72.5751 69.0364 72.5751 71.595C72.5751 74.1676 70.0944 76.2369 67.0589 76.2369Z" fill="#F7EA3A"/>
<path d="M1113.84 108.157C1113.84 105.598 1111.38 103.515 1108.32 103.515C1105.27 103.515 1102.81 105.598 1102.81 108.157C1102.81 110.715 1105.27 112.799 1108.32 112.799C1111.36 112.799 1113.84 110.715 1113.84 108.157Z" fill="#AC94FF"/>
<path d="M53.1216 -0.759331C53.1216 -0.759331 67.0426 -2.88452 85.7616 16.7875C104.481 36.4595 111.71 44.6527 118.385 45.0861L103.371 47.3791L101.869 54.286C101.869 54.286 88.3728 49.5882 75.4147 31.3702C62.473 13.1523 44.2598 5.77004 38.6131 5.11291C38.6131 5.12689 45.4675 -1.65415 53.1216 -0.759331Z" fill="#7264D8"/>
<path d="M61.249 0.331239C61.249 0.331239 48.9437 -0.242001 37.3402 16.2981C25.7203 32.8243 25.296 61.067 22.8806 82.4028C20.4653 103.739 9.28608 109.863 9.28608 109.863C6.87072 111.918 2.82336 112.295 0 112.253V106.926C9.49824 85.8702 8.16 25.8615 25.8346 10.3979C45.288 -6.63157 61.249 0.331239 61.249 0.331239Z" fill="#AC94FF"/>
<path d="M292.667 7.41984C292.667 7.41984 290.692 13.1243 277.62 14.3267C264.547 15.5291 259.488 14.5644 259.488 14.5644L260.777 1.49166C260.777 1.49166 276.265 3.11352 279.823 -1.05298C279.823 -1.05298 291.54 1.4637 292.667 7.41984Z" fill="#53BFC4"/>
<path d="M292.667 7.41977C292.667 7.41977 293.956 2.93169 278.207 -1.51444C262.458 -5.96056 248.423 -10.3647 243.641 -18.46C238.86 -26.5554 248.031 -29.4355 248.031 -29.4355C248.031 -29.4355 262.491 -21.7597 277.212 -18.4321C291.916 -15.1324 296.893 1.23993 292.667 7.41977Z" fill="#379391"/>
<path d="M520.494 55.0689C517.442 55.0689 514.978 52.9856 514.978 50.427C514.978 47.8684 517.442 45.7852 520.494 45.7852C523.546 45.7852 526.01 47.8684 526.01 50.427C526.01 52.9856 523.546 55.0689 520.494 55.0689Z" fill="#F7EA3A"/>
<path d="M197.815 141.405C199.167 141.405 200.263 140.466 200.263 139.308C200.263 138.149 199.167 137.21 197.815 137.21C196.463 137.21 195.367 138.149 195.367 139.308C195.367 140.466 196.463 141.405 197.815 141.405Z" fill="white"/>
<path d="M202.237 56.3971C203.589 56.3971 204.685 55.4581 204.685 54.2999C204.685 53.1416 203.589 52.2026 202.237 52.2026C200.885 52.2026 199.789 53.1416 199.789 54.2999C199.789 55.4581 200.885 56.3971 202.237 56.3971Z" fill="white"/>
<path d="M112.2 109.401C113.552 109.401 114.648 108.462 114.648 107.304C114.648 106.146 113.552 105.207 112.2 105.207C110.848 105.207 109.752 106.146 109.752 107.304C109.752 108.462 110.848 109.401 112.2 109.401Z" fill="white"/>
<path d="M403.218 31.1325C404.57 31.1325 405.666 30.1936 405.666 29.0353C405.666 27.8771 404.57 26.9381 403.218 26.9381C401.866 26.9381 400.77 27.8771 400.77 29.0353C400.77 30.1936 401.866 31.1325 403.218 31.1325Z" fill="white"/>
<path d="M667.08 39.5774C668.432 39.5774 669.528 38.6384 669.528 37.4802C669.528 36.3219 668.432 35.3829 667.08 35.3829C665.728 35.3829 664.632 36.3219 664.632 37.4802C664.632 38.6384 665.728 39.5774 667.08 39.5774Z" fill="white"/>
<path d="M814.319 34.1945C815.671 34.1945 816.767 33.2555 816.767 32.0972C816.767 30.939 815.671 30 814.319 30C812.967 30 811.871 30.939 811.871 32.0972C811.871 33.2555 812.967 34.1945 814.319 34.1945Z" fill="white"/>
<path d="M957.69 40.7937C959.042 40.7937 960.138 39.8548 960.138 38.6965C960.138 37.5382 959.042 36.5992 957.69 36.5992C956.338 36.5992 955.242 37.5382 955.242 38.6965C955.242 39.8548 956.338 40.7937 957.69 40.7937Z" fill="white"/>
<path d="M1116.29 9.22338C1117.64 9.22338 1118.74 8.28442 1118.74 7.12616C1118.74 5.96789 1117.64 5.02893 1116.29 5.02893C1114.94 5.02893 1113.84 5.96789 1113.84 7.12616C1113.84 8.28442 1114.94 9.22338 1116.29 9.22338Z" fill="white"/>
<path d="M1061.73 85.3249C1063.08 85.3249 1064.18 84.386 1064.18 83.2277C1064.18 82.0694 1063.08 81.1305 1061.73 81.1305C1060.38 81.1305 1059.28 82.0694 1059.28 83.2277C1059.28 84.386 1060.38 85.3249 1061.73 85.3249Z" fill="white"/>
<g clip-path="url(#clip0_175_2039)">
<path d="M101.6 198.8C101.6 198.8 99.94 194.9 99.36 191C99.36 191 97.7 192.88 97.62 193.31L95.6 191.93C95.6 191.93 96.61 198.24 97.7 199.95L98.6 198.3L101.6 198.8Z" fill="#01D8AE"/>
<path d="M66.07 234.85C66.07 234.85 61.75 240.39 69.5 248.56C77.25 256.73 92.13 259.02 94.67 263.12C97.21 267.23 93.58 273.41 93.58 273.41C93.58 273.41 101.68 267.8 101.26 259.51C100.84 251.21 86.03 245.35 77.51 242.77C69 240.19 68.66 232.17 68.66 232.17C68.66 232.17 66.15 233.21 66.07 234.85Z" fill="#01D8AE"/>
<path d="M64.93 240.03C64.93 240.03 63.62 233.29 75.79 230.46C87.96 227.62 93.17 231.69 93.17 231.69L98.61 216.95C98.6 216.94 64.07 218.3 64.93 240.03Z" fill="#379391"/>
<path d="M54 271.26V280.72C60.73 280.49 67.49 280.55 73.5 280.39C88.84 279.96 93.58 273.43 93.58 273.43C93.59 273.42 93.59 273.42 93.6 273.41C95.78 271.46 95.65 267.37 95.57 266.21C95.55 266.01 95.54 265.9 95.54 265.9C89.84 270.04 71.37 270.08 54 271.26Z" fill="#379391"/>
<path d="M121.5 214.74C121.5 212.91 123.01 211.42 124.88 211.42C126.75 211.42 128.27 212.91 128.27 214.74C128.27 216.57 126.76 218.06 124.89 218.06C123.02 218.06 121.5 216.58 121.5 214.74Z" fill="#AC94FF"/>
</g>
<defs>
<clipPath id="clip0_175_2039">
<rect width="74.27" height="89.72" fill="white" transform="matrix(-1 0 0 1 128.27 191)"/>
</clipPath>
</defs>
</svg>
