<svg width="50" height="50" viewBox="0 0 51 50" fill="none" xmlns="http://www.w3.org/2000/svg">
<rect x="0.5" y="0.5" width="49.349" height="49" rx="9.5" fill="white" stroke="#EBEBF0"/>
<path d="M34.9668 24.0068L30.5918 16.5068C30.2402 15.96 29.6543 15.5693 28.9902 15.5693H20.2402C19.5371 15.5693 18.9511 15.96 18.5996 16.5068L14.2246 24.0068C13.873 24.5928 13.873 25.335 14.2246 25.9209L18.5996 33.4209C18.9511 33.9678 19.5371 34.3193 20.2402 34.3193H28.9902C29.6543 34.3193 30.2402 33.9678 30.5918 33.4209L34.9668 25.9209C35.3183 25.335 35.3183 24.5928 34.9668 24.0068ZM29.3418 28.1475L27.8183 29.71C27.623 29.9053 27.3105 29.9053 27.1543 29.71L24.6152 27.1709L22.0761 29.71C21.8808 29.9053 21.5683 29.9053 21.4121 29.71L19.8496 28.1865C19.6543 27.9912 19.6543 27.6787 19.8496 27.5225L22.3886 24.9834L19.8496 22.4053C19.6543 22.249 19.6543 21.9365 19.8496 21.7412L21.373 20.2178C21.5683 20.0225 21.8808 20.0225 22.0371 20.2178L24.6152 22.7568L27.1543 20.2178C27.3105 20.0225 27.623 20.0225 27.8183 20.2178L29.3418 21.7412C29.5371 21.9365 29.5371 22.249 29.3418 22.4053L26.8027 24.9443L29.3418 27.4834C29.5371 27.6787 29.5371 27.9912 29.3418 28.1475Z" fill="url(#paint0_linear_1256_96137)"/>
<defs>
<linearGradient id="paint0_linear_1256_96137" x1="24.6152" y1="14.4443" x2="24.6152" y2="34.4443" gradientUnits="userSpaceOnUse">
<stop stop-color="#F97F7F"/>
<stop offset="1" stop-color="#DB3E3E"/>
</linearGradient>
</defs>
</svg>
