<svg width="50" height="50" viewBox="0 0 56 56" fill="none" xmlns="http://www.w3.org/2000/svg">
<rect x="0.5" y="0.5" width="55" height="55" rx="9.5" stroke="#27AE60"/>
<rect x="0.5" y="0.5" width="55" height="55" rx="9.5" fill="white" stroke="#F97F7F"/>
<path d="M40.0019 26.1631L35.1894 17.9131C34.8027 17.3115 34.1582 16.8818 33.4277 16.8818H23.8027C23.0293 16.8818 22.3847 17.3115 21.998 17.9131L17.1855 26.1631C16.7988 26.8076 16.7988 27.624 17.1855 28.2686L21.998 36.5186C22.3847 37.1201 23.0293 37.5068 23.8027 37.5068H33.4277C34.1582 37.5068 34.8027 37.1201 35.1894 36.5186L40.0019 28.2686C40.3886 27.624 40.3886 26.8076 40.0019 26.1631ZM33.8144 30.7178L32.1386 32.4365C31.9238 32.6514 31.58 32.6514 31.4082 32.4365L28.6152 29.6436L25.8222 32.4365C25.6074 32.6514 25.2636 32.6514 25.0918 32.4365L23.373 30.7607C23.1582 30.5459 23.1582 30.2021 23.373 30.0303L26.166 27.2373L23.373 24.4014C23.1582 24.2295 23.1582 23.8857 23.373 23.6709L25.0488 21.9951C25.2636 21.7803 25.6074 21.7803 25.7793 21.9951L28.6152 24.7881L31.4082 21.9951C31.58 21.7803 31.9238 21.7803 32.1386 21.9951L33.8144 23.6709C34.0293 23.8857 34.0293 24.2295 33.8144 24.4014L31.0215 27.1943L33.8144 29.9873C34.0293 30.2021 34.0293 30.5459 33.8144 30.7178Z" fill="url(#paint0_linear_1247_96945)"/>
<defs>
<linearGradient id="paint0_linear_1247_96945" x1="28.6152" y1="17.4443" x2="28.6152" y2="37.4443" gradientUnits="userSpaceOnUse">
<stop stop-color="#F97F7F"/>
<stop offset="1" stop-color="#DB3E3E"/>
</linearGradient>
</defs>
</svg>
