<svg width="51" height="50" viewBox="0 0 51 50" fill="none" xmlns="http://www.w3.org/2000/svg">
<g clip-path="url(#clip0_5734:96409)">
<path d="M4.46842 48.6623L2.55601 49.3711C1.35719 49.8116 0.186906 48.6335 0.621401 47.4235L13.6531 11.8479C13.6531 12.8472 14.3984 14.4818 15.705 16.4996L4.37962 47.4235C4.22104 47.8641 4.27179 48.3047 4.46842 48.6623Z" fill="#D3EAF8"/>
<path d="M34.1599 37.6413L8.23927 26.6107L5.93994 32.9098L25.0196 41.0255V41.0351L34.1599 37.6413Z" fill="#FBDB74"/>
<path d="M15.8731 44.4321L3.62793 39.2121L1.31592 45.5112L6.72965 47.8163L15.8731 44.4321Z" fill="#FBDB74"/>
<path d="M47.9718 16.0303L47.4453 17.0584C47.2169 17.5085 46.5636 17.3968 46.4843 16.9083L46.3067 15.7589C46.2655 15.5387 46.0974 15.3694 45.8818 15.3311L44.7527 15.1523C44.2675 15.0725 44.1565 14.4148 44.6036 14.185L45.6249 13.655C45.8247 13.556 45.9325 13.3357 45.904 13.1154L45.7263 11.9789C45.6471 11.4904 46.2433 11.1807 46.5985 11.5287L47.4104 12.346C47.569 12.5056 47.8068 12.5472 48.0066 12.4354L49.0279 11.9054C49.475 11.6756 49.9413 12.1545 49.7224 12.595L49.196 13.6231C49.0976 13.8242 49.1357 14.0637 49.2943 14.2233L50.1062 15.0406C50.4519 15.3886 50.1569 15.9888 49.659 15.9186L48.5299 15.7398C48.2889 15.7206 48.0828 15.842 47.9718 16.0303Z" fill="#EF9070"/>
<path d="M23.161 8.90429L22.7234 9.77269C22.5363 10.143 21.9781 10.0632 21.921 9.6418L21.7719 8.684C21.7434 8.49564 21.6038 8.35516 21.4135 8.32323L20.4716 8.17318C20.0657 8.10294 19.9769 7.55381 20.3416 7.36544L21.1947 6.92486C21.3628 6.83546 21.4516 6.65667 21.4231 6.47469L21.274 5.5169C21.2042 5.10824 21.7117 4.84964 21.9971 5.14655L22.6726 5.82659C22.8027 5.95748 23.0088 5.98622 23.1674 5.9064L24.0205 5.46582C24.3884 5.27745 24.7848 5.67653 24.5946 6.04369L24.1569 6.91208C24.0776 7.08129 24.1061 7.28243 24.2362 7.41014L24.9212 8.09975C25.2193 8.39986 24.9624 8.89791 24.5533 8.82767L23.6019 8.67762C23.4306 8.6425 23.2498 8.73508 23.161 8.90429Z" fill="#EF9070"/>
<path d="M36.4687 6.49707L36.031 7.36547C35.8439 7.73582 35.2857 7.656 35.2286 7.23457L35.0795 6.27678C35.051 6.08841 34.9115 5.94793 34.7212 5.91601L33.7792 5.76595C33.3733 5.69572 33.2845 5.14658 33.6492 4.95821L34.5023 4.51763C34.6704 4.42824 34.7592 4.24945 34.7307 4.06747L34.5816 3.10967C34.5118 2.70101 35.0193 2.44241 35.3047 2.73933L35.9802 3.41936C36.1103 3.55026 36.3164 3.57899 36.475 3.49918L37.3281 3.05859C37.696 2.87022 38.0925 3.26931 37.9022 3.63646L37.4645 4.50486C37.3852 4.67407 37.4138 4.87521 37.5438 5.00291L38.2288 5.69252C38.5269 5.99263 38.2701 6.49068 37.8609 6.42045L36.9095 6.27039C36.7382 6.23847 36.5575 6.32786 36.4687 6.49707Z" fill="#EF9070"/>
<path d="M41.9522 28.5678C41.2386 29.2861 40.0779 29.2861 39.3643 28.5678C38.6507 27.8494 38.6507 26.6809 39.3643 25.9626C40.0779 25.2442 41.2386 25.2442 41.9522 25.9626C42.6658 26.6809 42.6658 27.8399 41.9522 28.5678Z" fill="#FBDB74"/>
<path d="M35.6666 20.1648C34.953 20.8831 33.7922 20.8831 33.0786 20.1648C32.3651 19.4464 32.3651 18.2779 33.0786 17.5596C33.7922 16.8412 34.953 16.8412 35.6666 17.5596C36.3802 18.2875 36.3802 19.4432 35.6666 20.1648Z" fill="#FBDB74"/>
<path d="M27.3378 19.5039C27.5376 19.2931 27.5249 18.9547 27.3188 18.7536C26.5545 18.0352 25.7521 17.3073 24.9402 16.589C24.7213 16.4006 24.3852 16.4198 24.1949 16.6401C24.0078 16.8604 24.0268 17.1988 24.2456 17.3903C25.0575 18.0991 25.8536 18.8174 26.5957 19.5358C26.8018 19.7337 27.138 19.7242 27.3378 19.5039Z" fill="#4B688C"/>
<path d="M34.1979 26.9428C33.9696 27.1216 33.9315 27.4632 34.1091 27.693C37.9879 32.6129 38.7205 35.1702 38.2733 35.6204C38.0164 35.879 36.6875 35.8215 33.5129 33.7144C30.7283 31.8626 27.3856 29.018 24.1031 25.7136C20.8206 22.4092 17.9948 19.0442 16.1617 16.241C14.0685 13.0452 14.0114 11.7075 14.2683 11.4489C14.6742 11.0498 16.7769 11.5798 20.9221 14.6926C21.1599 14.8714 21.4866 14.8235 21.6674 14.5841C21.845 14.3446 21.7974 14.0158 21.5595 13.8338C19.793 12.5056 15.0833 9.13102 13.5261 10.689C12.6128 11.6085 13.19 13.6135 15.28 16.8189C17.1543 19.6827 20.0309 23.1084 23.3609 26.4607C27.1192 30.244 32.6439 34.9563 36.1642 36.3547L34.2201 37.073L8.91162 26.3138L10.8557 21.014L18.3817 24.229C18.7274 24.4302 19.1651 24.1684 19.1651 23.7597C19.1651 23.5394 19.0255 23.3511 18.8384 23.2617L11.2236 20.0147L12.9489 15.3024C13.0472 15.0214 12.9077 14.7245 12.6318 14.6224C12.3527 14.5234 12.0577 14.6639 11.9563 14.9416C9.21926 22.4092 2.86359 39.7676 0.126592 47.2448C-0.152499 48.0046 0.03779 48.822 0.602315 49.3998C1.16684 49.9681 1.99143 50.1501 2.73356 49.8691L38.1845 36.7633C38.5207 36.7218 38.8093 36.5941 39.0281 36.3738C40.6138 34.7775 37.1538 29.8353 34.9432 27.029C34.7624 26.8023 34.4263 26.7608 34.1979 26.9428ZM32.7612 37.6222L15.9048 43.8606L4.30345 38.9184L6.24757 33.6186L21.6674 40.1859C21.9465 40.3072 22.2509 40.1667 22.3619 39.9049C22.4697 39.6367 22.3524 39.327 22.0828 39.2057L6.61229 32.6161L8.55642 27.3163L32.7612 37.6222ZM6.75184 47.2448L1.99143 45.2175L3.93555 39.9177L14.4554 44.4002L6.75184 47.2448ZM2.36884 48.8635C2.00094 48.9944 1.62354 48.9145 1.34762 48.6336C1.06852 48.3526 0.979723 47.9663 1.11927 47.6056L1.62354 46.2168L5.29295 47.7844L2.36884 48.8635Z" fill="#4B688C"/>
<path d="M29.9356 22.0995C29.7263 22.3007 29.7168 22.6391 29.9166 22.8498C30.4208 23.3893 30.9092 23.9066 31.3754 24.4365C31.5752 24.6568 31.9019 24.676 32.1207 24.478C32.3396 24.2801 32.3586 23.9481 32.162 23.7278C31.6862 23.1978 31.1915 22.6582 30.6841 22.1219C30.4811 21.9112 30.1417 21.9016 29.9356 22.0995Z" fill="#4B688C"/>
<path d="M20.9697 16.5507C20.7318 16.7199 20.6715 17.0487 20.8396 17.2882C21.0077 17.5276 21.3344 17.5883 21.5723 17.4191C21.6801 17.3393 32.6788 9.37361 28.9301 0.328845C28.8223 0.060663 28.5146 -0.0702354 28.2356 0.0383145C27.9692 0.146864 27.8391 0.466129 27.947 0.737504C31.3817 8.99368 21.0807 16.4709 20.9697 16.5507Z" fill="#4B688C"/>
<path d="M48.2605 19.7753C39.2756 16.0016 31.3628 27.0609 31.2835 27.1822C31.1154 27.4216 31.1757 27.7505 31.4135 27.9197C31.6514 28.0889 31.978 28.0282 32.1461 27.7888C32.2159 27.6803 39.6435 17.2978 47.8545 20.7522C48.1209 20.8608 48.4286 20.7426 48.5491 20.4617C48.6569 20.1935 48.5269 19.8838 48.2605 19.7753Z" fill="#4B688C"/>
<path d="M26.5737 23.3191C26.3454 23.5075 26.3168 23.8491 26.504 24.0694C26.6911 24.2993 27.0304 24.328 27.2492 24.1396C29.9862 21.8345 29.2314 16.953 31.9684 15.3567C32.8311 14.849 33.903 14.7884 35.0416 14.7277C38.3146 14.5489 39.8115 13.9583 40.7725 10.2165C41.0516 9.13738 41.318 7.94014 42.0221 7.12283C42.6278 6.42364 43.8076 6.05329 44.4704 6.63435C44.6893 6.82272 45.0255 6.80356 45.2157 6.57369C45.4029 6.3534 45.3743 6.01498 45.1555 5.82342C43.9852 4.81454 42.1806 5.32537 41.2292 6.42364C40.376 7.41336 40.0779 8.68084 39.7513 9.94832C38.9394 13.1026 37.9372 13.5017 34.9813 13.6614C33.773 13.7316 32.5234 13.8018 31.4324 14.4308C28.1309 16.3591 29.0411 21.2407 26.5737 23.3191Z" fill="#4B688C"/>
<path d="M50.4616 14.6926L49.6592 13.8944L50.1761 12.8664C50.3854 12.4578 50.3061 11.9789 49.989 11.65C49.6623 11.3212 49.1866 11.2509 48.7807 11.4616L47.7785 11.9916L46.9666 11.1743C46.6399 10.8455 46.1642 10.7752 45.7582 10.9859C45.3523 11.1967 45.1334 11.6245 45.2032 12.0842L45.3903 13.2016L44.3691 13.7316C43.9632 13.9423 43.7443 14.3701 43.8141 14.8299C43.8839 15.2896 44.2296 15.628 44.6768 15.6983L45.7963 15.8675L45.9739 17.0168C46.1325 18.0257 47.4708 18.2332 47.9275 17.3265L48.4445 16.3081L49.564 16.4869C50.0207 16.5571 50.4457 16.3368 50.655 15.9282C50.858 15.4908 50.7882 15.0119 50.4616 14.6926ZM48.5967 15.2322C48.1495 15.1619 47.715 15.3822 47.5057 15.7909L47.011 16.8285L46.8334 15.6791C46.7636 15.229 46.4179 14.881 45.9707 14.8107L44.8512 14.6607L45.8724 14.1307C46.2784 13.92 46.4972 13.4826 46.4274 13.0324L46.2086 11.915L47.0205 12.7323C47.3376 13.0516 47.8229 13.1314 48.2288 12.9207L49.231 12.3716L48.7141 13.3996C48.5047 13.8082 48.584 14.2967 48.9012 14.616L49.7258 15.4046L48.5967 15.2322Z" fill="#4B688C"/>
<path d="M20.3863 8.6936L21.2584 8.83408L21.398 9.72163C21.4677 10.1303 21.7849 10.4591 22.1908 10.5198C22.2416 10.5294 22.2892 10.5294 22.3399 10.5294C22.6983 10.5294 23.0249 10.3282 23.193 9.99939L23.599 9.20123L24.4711 9.34171C24.8771 9.41194 25.283 9.20123 25.4733 8.8213C25.6605 8.45096 25.5939 8.00399 25.2957 7.70388L24.671 7.07493L25.0769 6.27677C25.264 5.90642 25.1974 5.45945 24.8993 5.15934C24.6012 4.85923 24.154 4.789 23.7893 4.98055L22.9964 5.38921L22.3716 4.76026C22.0735 4.46015 21.6263 4.38991 21.2616 4.58147C20.8937 4.76984 20.6876 5.18169 20.7446 5.59035L20.8842 6.46833L20.0913 6.87698C19.7234 7.06535 19.5173 7.4772 19.5744 7.88586C19.6505 8.3041 19.9676 8.62336 20.3863 8.6936ZM21.436 7.38461C21.8039 7.19625 22.0101 6.7844 21.9403 6.37574L21.842 5.72763L22.3082 6.19695C22.6063 6.49706 23.0535 6.5673 23.4182 6.37574L24.0018 6.07563L23.7036 6.66308C23.5165 7.03342 23.5831 7.48039 23.8812 7.7805L24.3475 8.24982L23.7036 8.15085C23.2882 8.08061 22.8917 8.29133 22.7015 8.67125L22.4033 9.2587L22.305 8.60101C22.2352 8.19235 21.9181 7.86351 21.5121 7.80285L20.8683 7.70388L21.436 7.38461Z" fill="#4B688C"/>
<path d="M33.6843 6.28953L34.5564 6.43001L34.696 7.31756C34.845 8.23704 36.0756 8.43499 36.491 7.60809L36.897 6.80993L37.7692 6.95041C38.1751 7.02065 38.5811 6.80993 38.7713 6.43001C38.9585 6.05966 38.8919 5.61269 38.5937 5.31258L37.969 4.68363L38.3749 3.88547C38.562 3.51512 38.4954 3.06815 38.1973 2.76805C37.8992 2.46794 37.452 2.3977 37.0873 2.58926L36.2944 2.99792L35.6696 2.36896C35.3715 2.06886 34.9243 1.99862 34.5596 2.19018C34.1949 2.38174 33.9856 2.79039 34.0426 3.19905L34.1822 4.07703L33.3893 4.48569C33.0214 4.67405 32.8153 5.0859 32.8851 5.49456C32.958 5.90003 33.2751 6.21929 33.6843 6.28953ZM34.734 4.98055C35.1019 4.79218 35.3081 4.38033 35.251 3.97167L35.1527 3.32357L35.6189 3.79288C35.917 4.09299 36.3642 4.16323 36.7289 3.97167L37.3125 3.67156L37.0143 4.25901C36.8272 4.62936 36.8938 5.07633 37.1919 5.37644L37.6581 5.84575L37.0143 5.74678C36.6084 5.67654 36.2024 5.88726 36.0121 6.25441L35.714 6.84186L35.6157 6.18417C35.5459 5.77552 35.2288 5.44667 34.8228 5.38601L34.179 5.28704L34.734 4.98055Z" fill="#4B688C"/>
<path d="M38.9868 25.5827C38.5396 26.0329 38.3018 26.6203 38.3018 27.2588C38.3018 27.8974 38.5491 28.488 38.9963 28.935C39.453 29.3947 40.0588 29.6342 40.6614 29.6342C41.2671 29.6342 41.8697 29.4043 42.3264 28.9446C43.2493 28.0155 43.2493 26.5086 42.3264 25.5891C41.4067 24.6568 39.9097 24.6568 38.9868 25.5827ZM41.5747 28.1879C41.0705 28.6955 40.2459 28.6955 39.7416 28.1879C39.4942 27.9389 39.3642 27.61 39.3547 27.2588C39.3547 26.9108 39.4942 26.5788 39.7321 26.3394C39.989 26.0808 40.3157 25.9594 40.655 25.9594C40.9912 25.9594 41.3178 26.0903 41.5779 26.3394C42.0822 26.8406 42.0822 27.6803 41.5747 28.1879Z" fill="#4B688C"/>
<path d="M34.3661 21.2407C34.9719 21.2407 35.5744 21.0108 36.0311 20.5511C36.954 19.622 36.954 18.1151 36.0311 17.1861C35.1082 16.257 33.6113 16.257 32.6979 17.1861C31.775 18.1151 31.7845 19.6125 32.6979 20.5415C33.1673 21.0013 33.773 21.2407 34.3661 21.2407ZM33.4464 17.9363C33.7033 17.6777 34.0299 17.5564 34.3693 17.5564C34.7054 17.5564 35.0321 17.6873 35.2922 17.9363C35.7964 18.444 35.7964 19.274 35.2922 19.7944C34.7879 20.3021 33.9633 20.3021 33.459 19.7944C32.9389 19.274 32.9389 18.4471 33.4464 17.9363Z" fill="#4B688C"/>
</g>
<defs>
<clipPath id="clip0_5734:96409">
<rect width="50.7692" height="50" fill="white"/>
</clipPath>
</defs>
</svg>
