<svg width="189" height="73" viewBox="0 0 189 73" fill="none" xmlns="http://www.w3.org/2000/svg">
<g clip-path="url(#clip0_5734:97531)">
<path d="M166.488 23.0682C166.377 22.3591 165.707 21.8763 164.991 21.9862C164.276 22.0961 163.788 22.76 163.899 23.4691C164.086 24.6783 164.326 28.4652 163.007 29.9891C162.722 30.3189 162.377 30.5172 161.944 30.5948L162.063 23.3807C162.081 22.3332 161.228 21.4732 160.171 21.4732C159.107 21.4732 158.252 22.3418 158.278 23.3958L158.62 37.0846C158.165 37.0113 157.806 36.813 157.512 36.4725C156.194 34.9486 156.433 31.1616 156.62 29.9525C156.731 29.2433 156.244 28.5795 155.528 28.4696C154.812 28.3596 154.142 28.8424 154.031 29.5516C153.938 30.1464 153.181 35.4508 155.519 38.1601C156.324 39.0913 157.414 39.6193 158.685 39.7012L158.833 45.6608H161.691L161.898 33.2114C163.14 33.1144 164.206 32.5906 164.998 31.6746C167.339 28.9675 166.582 23.6652 166.488 23.0682Z" fill="#C3D1EB"/>
<path d="M33.1214 31.1972C33.0496 30.7467 32.6232 30.4363 32.1664 30.5075C31.7117 30.5786 31.3984 31.001 31.4702 31.4537C31.5899 32.2253 31.7421 34.6393 30.9024 35.6092C30.7197 35.8205 30.5 35.9455 30.2237 35.9951L30.2998 31.3976C30.3107 30.7295 29.7668 30.182 29.0924 30.182C28.4137 30.182 27.8698 30.7359 27.885 31.4084L28.1026 40.1355C27.8133 40.0903 27.5848 39.9631 27.3956 39.7454C26.5537 38.7733 26.7081 36.3593 26.8278 35.5898C26.8996 35.1394 26.5863 34.7148 26.1316 34.6436C25.6748 34.5725 25.2484 34.8829 25.1766 35.3334C25.1157 35.7127 24.6349 39.0945 26.1251 40.8209C26.6385 41.4158 27.3325 41.7521 28.1439 41.8038L28.2396 45.6016H30.0627L30.1954 37.6655C30.9873 37.6051 31.6682 37.2689 32.1707 36.6848C33.6653 34.9583 33.1823 31.5787 33.1214 31.1972Z" fill="#C3D1EB"/>
<path d="M94.2805 100.546C146.35 100.546 188.561 85.7413 188.561 67.4784C188.561 49.2156 146.35 34.4106 94.2805 34.4106C42.2108 34.4106 0 49.2156 0 67.4784C0 85.7413 42.2108 100.546 94.2805 100.546Z" fill="url(#paint0_linear_5734:97531)"/>
</g>
<g clip-path="url(#clip1_5734:97531)">
<path d="M96.0013 56C88.5211 56 81.4903 53.0862 76.2021 47.7979C70.9138 42.5097 68 35.4789 68 28.0013C68 20.5237 70.9138 13.4903 76.2021 8.20209C81.4903 2.91383 88.5211 0 96.0013 0C103.482 0 110.512 2.91383 115.801 8.20209C121.089 13.4903 124.003 20.5211 124.003 28.0013C124.003 35.4816 121.091 42.5123 115.801 47.8006C110.51 53.0888 103.479 56 96.0013 56Z" fill="#ECF4FA"/>
<path d="M96.0014 51.7879C109.138 51.7879 119.788 41.1383 119.788 28.0014C119.788 14.8644 109.138 4.21478 96.0014 4.21478C82.8645 4.21478 72.2148 14.8644 72.2148 28.0014C72.2148 41.1383 82.8645 51.7879 96.0014 51.7879Z" fill="#9FB7C7"/>
<path d="M96.0004 3.36865C95.5324 3.36865 95.1543 3.74676 95.1543 4.21477V7.97208C95.1543 8.44009 95.5324 8.8182 96.0004 8.8182C96.4684 8.8182 96.8465 8.44009 96.8465 7.97208V4.21477C96.8439 3.74676 96.4658 3.36865 96.0004 3.36865Z" fill="#ECF4FA"/>
<path d="M84.8377 6.97785C84.6051 6.5733 84.0868 6.4358 83.6823 6.66848C83.2777 6.90117 83.1402 7.41942 83.3729 7.82397L85.2529 11.0789C85.4089 11.3512 85.6944 11.5019 85.9853 11.5019C86.1281 11.5019 86.2735 11.4649 86.4084 11.3883C86.8129 11.1556 86.9504 10.6373 86.7177 10.2328L84.8377 6.97785Z" fill="#ECF4FA"/>
<path d="M79.0763 17.2529L75.8213 15.373C75.4168 15.1403 74.9012 15.2778 74.6659 15.6823C74.4332 16.0869 74.5707 16.6025 74.9752 16.8378L78.2301 18.7178C78.3624 18.7945 78.5078 18.8315 78.6532 18.8315C78.9441 18.8315 79.2296 18.6808 79.3856 18.4084C79.621 18.0039 79.4808 17.4883 79.0763 17.2529Z" fill="#ECF4FA"/>
<path d="M76.8151 28.0014C76.8151 27.5334 76.437 27.1553 75.9689 27.1553H72.2143C71.7463 27.1553 71.3682 27.5334 71.3682 28.0014C71.3682 28.4694 71.7463 28.8475 72.2143 28.8475H75.9716C76.437 28.8449 76.8151 28.4668 76.8151 28.0014Z" fill="#ECF4FA"/>
<path d="M78.2321 37.2822L74.9772 39.1622C74.5726 39.3949 74.4351 39.9131 74.6678 40.3177C74.8238 40.59 75.1094 40.7407 75.4002 40.7407C75.543 40.7407 75.6884 40.7037 75.8233 40.627L79.0782 38.747C79.4828 38.5144 79.6203 37.9961 79.3876 37.5916C79.1523 37.187 78.6366 37.0495 78.2321 37.2822Z" fill="#ECF4FA"/>
<path d="M86.4084 44.6143C86.0038 44.3817 85.4882 44.5192 85.2529 44.9237L83.3729 48.1786C83.1402 48.5832 83.2777 49.0988 83.6823 49.3341C83.8145 49.4108 83.9599 49.4478 84.1053 49.4478C84.3962 49.4478 84.6817 49.2971 84.8377 49.0248L86.7177 45.7698C86.9504 45.3653 86.8129 44.847 86.4084 44.6143Z" fill="#ECF4FA"/>
<path d="M96.0004 47.1845C95.5324 47.1845 95.1543 47.5626 95.1543 48.0306V51.7879C95.1543 52.2559 95.5324 52.6341 96.0004 52.6341C96.4684 52.6341 96.8465 52.2559 96.8465 51.7879V48.0306C96.8439 47.5626 96.4658 47.1845 96.0004 47.1845Z" fill="#ECF4FA"/>
<path d="M106.747 44.9237C106.514 44.5192 105.996 44.3817 105.591 44.6143C105.187 44.847 105.049 45.3653 105.282 45.7698L107.162 49.0248C107.318 49.2971 107.604 49.4478 107.894 49.4478C108.037 49.4478 108.183 49.4108 108.318 49.3341C108.722 49.1014 108.86 48.5832 108.627 48.1786L106.747 44.9237Z" fill="#ECF4FA"/>
<path d="M117.022 39.1622L113.77 37.2822C113.365 37.0495 112.849 37.187 112.614 37.5916C112.381 37.9961 112.519 38.5117 112.923 38.747L116.178 40.627C116.311 40.7037 116.456 40.7407 116.601 40.7407C116.892 40.7407 117.178 40.59 117.334 40.3177C117.564 39.9131 117.426 39.3949 117.022 39.1622Z" fill="#ECF4FA"/>
<path d="M119.787 27.1553H116.03C115.562 27.1553 115.184 27.5334 115.184 28.0014C115.184 28.4694 115.562 28.8475 116.03 28.8475H119.787C120.255 28.8475 120.633 28.4694 120.633 28.0014C120.633 27.5334 120.252 27.1553 119.787 27.1553Z" fill="#ECF4FA"/>
<path d="M113.347 18.8315C113.489 18.8315 113.635 18.7945 113.77 18.7178L117.025 16.8378C117.429 16.6051 117.567 16.0869 117.334 15.6823C117.101 15.2778 116.583 15.1403 116.178 15.373L112.923 17.2529C112.519 17.4856 112.381 18.0039 112.614 18.4084C112.77 18.6781 113.056 18.8315 113.347 18.8315Z" fill="#ECF4FA"/>
<path d="M108.315 6.66848C107.91 6.4358 107.395 6.5733 107.159 6.97785L105.282 10.2328C105.049 10.6373 105.187 11.1529 105.591 11.3883C105.724 11.4649 105.869 11.5019 106.014 11.5019C106.305 11.5019 106.591 11.3512 106.747 11.0789L108.627 7.82397C108.86 7.41942 108.719 6.90117 108.315 6.66848Z" fill="#ECF4FA"/>
<path d="M94.8721 8.14658C95.3745 7.27666 96.6278 7.27666 97.1302 8.14658L98.4179 10.3782L100.835 14.5665H96.0012H91.165L93.5818 10.3782L94.8721 8.14658Z" fill="#EB5757"/>
<path d="M95.9508 43.7146C104.657 43.7146 111.715 36.6567 111.715 27.9503C111.715 19.2439 104.657 12.186 95.9508 12.186C87.2444 12.186 80.1865 19.2439 80.1865 27.9503C80.1865 36.6567 87.2444 43.7146 95.9508 43.7146Z" fill="#ECF4FA"/>
<path d="M95.951 12.1841C95.1869 12.1841 94.4333 12.2396 93.6982 12.3454C101.337 13.44 107.21 20.0081 107.21 27.9484C107.21 35.8887 101.337 42.4594 93.6982 43.5514C94.4333 43.6571 95.1869 43.7127 95.951 43.7127C104.658 43.7127 111.715 36.6555 111.715 27.9484C111.715 19.2413 104.658 12.1841 95.951 12.1841Z" fill="#E4EFF7"/>
<path d="M84.6918 28.7945C84.2238 28.7945 83.8457 28.4164 83.8457 27.9484C83.8457 21.2746 89.2741 15.8462 95.9479 15.8462C96.4159 15.8462 96.794 16.2243 96.794 16.6923C96.794 17.1603 96.4159 17.5384 95.9479 17.5384C90.2048 17.5384 85.5353 22.2106 85.5353 27.951C85.5379 28.4164 85.1598 28.7945 84.6918 28.7945Z" fill="#CAD7E0"/>
</g>
<defs>
<linearGradient id="paint0_linear_5734:97531" x1="94.7139" y1="34.5095" x2="94.7139" y2="67.529" gradientUnits="userSpaceOnUse">
<stop stop-color="#E9F0FB"/>
<stop offset="1" stop-color="#F7FAFF" stop-opacity="0"/>
</linearGradient>
<clipPath id="clip0_5734:97531">
<rect width="189" height="55" fill="white" transform="translate(0 18)"/>
</clipPath>
<clipPath id="clip1_5734:97531">
<rect width="56" height="56" fill="white" transform="translate(68)"/>
</clipPath>
</defs>
</svg>
