<svg width="50" height="50" viewBox="0 0 51 50" fill="none" xmlns="http://www.w3.org/2000/svg">
<rect x="0.5" y="0.5" width="49.349" height="49" rx="9.5" fill="white" stroke="#EBEBF0"/>
<path d="M35.2402 26.1943H32.1152V29.9443L30.8652 29.124L29.6152 29.9443V26.1943H26.4902C26.1386 26.1943 25.8652 26.5068 25.8652 26.8193V34.3193C25.8652 34.6709 26.1386 34.9443 26.4902 34.9443H35.2402C35.5527 34.9443 35.8652 34.6709 35.8652 34.3193V26.8193C35.8652 26.5068 35.5527 26.1943 35.2402 26.1943ZM20.2402 23.6943H28.9902C29.3027 23.6943 29.6152 23.4209 29.6152 23.0693V15.5693C29.6152 15.2568 29.3027 14.9443 28.9902 14.9443H25.8652V18.6943L24.6152 17.874L23.3652 18.6943V14.9443H20.2402C19.8886 14.9443 19.6152 15.2568 19.6152 15.5693V23.0693C19.6152 23.4209 19.8886 23.6943 20.2402 23.6943ZM22.7402 26.1943H19.6152V29.9443L18.3652 29.124L17.1152 29.9443V26.1943H13.9902C13.6386 26.1943 13.3652 26.5068 13.3652 26.8193V34.3193C13.3652 34.6709 13.6386 34.9443 13.9902 34.9443H22.7402C23.0527 34.9443 23.3652 34.6709 23.3652 34.3193V26.8193C23.3652 26.5068 23.0527 26.1943 22.7402 26.1943Z" fill="url(#paint0_linear_1256_96130)"/>
<defs>
<linearGradient id="paint0_linear_1256_96130" x1="20" y1="14" x2="30.5" y2="34" gradientUnits="userSpaceOnUse">
<stop stop-color="#A065CB"/>
<stop offset="1" stop-color="#652F8D"/>
</linearGradient>
</defs>
</svg>
