<svg width="50" height="50" viewBox="0 0 56 56" fill="none" xmlns="http://www.w3.org/2000/svg">
<path d="M36.8086 22.25H20.4375C20.0508 22.25 19.75 21.9492 19.75 21.5625C19.75 21.2188 20.0508 20.875 20.4375 20.875H36.9375C37.2812 20.875 37.625 20.5742 37.625 20.1875C37.625 19.0703 36.6797 18.125 35.5625 18.125H19.75C18.2031 18.125 17 19.3711 17 20.875V34.625C17 36.1719 18.2031 37.375 19.75 37.375H36.8086C38.0117 37.375 39 36.4727 39 35.3125V24.3125C39 23.1953 38.0117 22.25 36.8086 22.25ZM34.875 31.1875C34.1016 31.1875 33.5 30.5859 33.5 29.8125C33.5 29.082 34.1016 28.4375 34.875 28.4375C35.6055 28.4375 36.25 29.082 36.25 29.8125C36.25 30.5859 35.6055 31.1875 34.875 31.1875Z" fill="url(#paint0_linear_1247_95938)"/>
<rect x="0.5" y="0.5" width="55" height="55" rx="9.5" stroke="#3D56A6"/>
<defs>
<linearGradient id="paint0_linear_1247_95938" x1="23.2094" y1="16.8254" x2="34.9951" y2="37.9415" gradientUnits="userSpaceOnUse">
<stop stop-color="#708DEA"/>
<stop offset="1" stop-color="#3D56A6"/>
</linearGradient>
</defs>
</svg>