<svg width="50" height="50" viewBox="0 0 56 56" fill="none" xmlns="http://www.w3.org/2000/svg">
<rect x="0.5" y="0.5" width="55" height="55" rx="9.5" stroke="#27AE60"/>
<path d="M18.138 22.3301L28.1497 26.8418C28.4505 26.9707 28.7513 26.9707 29.0521 26.8418L39.0638 22.3301C39.7942 21.9863 39.7942 20.9121 39.0638 20.5684L29.0521 16.0566C28.9231 16.0137 28.7513 15.9277 28.6224 15.9277C28.4505 15.9277 28.2786 16.0137 28.1497 16.0566L18.138 20.5684C17.4075 20.9121 17.4075 21.9863 18.138 22.3301ZM39.0638 26.1113L36.5716 24.9512L29.6106 28.1309C29.3099 28.2598 28.9661 28.3457 28.6224 28.3457C28.2356 28.3457 27.8919 28.2598 27.5911 28.1309L20.6302 24.9512L18.138 26.1113C17.4075 26.4121 17.4075 27.4863 18.138 27.8301L28.1497 32.3418C28.4505 32.4707 28.7513 32.4707 29.0521 32.3418L39.0638 27.8301C39.7942 27.4863 39.7942 26.4121 39.0638 26.1113ZM39.0638 31.6113L36.5716 30.4512L29.6106 33.6309C29.3099 33.7598 28.9661 33.8457 28.6224 33.8457C28.2356 33.8457 27.8919 33.7598 27.5911 33.6309L20.6302 30.4512L18.138 31.6113C17.4075 31.9121 17.4075 32.9863 18.138 33.3301L28.1497 37.8418C28.4505 37.9707 28.7513 37.9707 29.0521 37.8418L39.0638 33.3301C39.7942 32.9863 39.7942 31.9121 39.0638 31.6113Z" fill="#27AE60"/>
</svg>
