<svg width="50" height="50" viewBox="0 0 56 56" fill="none" xmlns="http://www.w3.org/2000/svg">
<rect x="0.5" y="0.5" width="55" height="55" rx="9.5" fill="white" stroke="#2D9CDB"/>
<path d="M19.879 32.6637L24.079 28.4637C24.1665 28.3324 24.254 28.1137 24.254 27.9387C24.254 27.8074 24.1665 27.5887 24.079 27.4574L19.879 23.2574C19.4415 22.8199 18.6978 23.1262 18.6978 23.7387V32.1387C18.6978 32.7949 19.4415 33.1012 19.879 32.6637ZM37.5978 34.9387H19.3978C19.004 34.9387 18.6978 35.2887 18.6978 35.6387V37.0387C18.6978 37.4324 19.004 37.7387 19.3978 37.7387H37.5978C37.9478 37.7387 38.2978 37.4324 38.2978 37.0387V35.6387C38.2978 35.2887 37.9478 34.9387 37.5978 34.9387ZM37.729 29.3387H27.6228C27.3165 29.3387 27.0978 29.6012 27.0978 29.9074V31.6137C27.0978 31.9199 27.3165 32.1387 27.6228 32.1387H37.729C38.0353 32.1387 38.2978 31.9199 38.2978 31.6137V29.9074C38.2978 29.6012 38.0353 29.3387 37.729 29.3387ZM37.729 23.7387H27.6228C27.3165 23.7387 27.0978 24.0012 27.0978 24.3074V26.0137C27.0978 26.3199 27.3165 26.5387 27.6228 26.5387H37.729C38.0353 26.5387 38.2978 26.3199 38.2978 26.0137V24.3074C38.2978 24.0012 38.0353 23.7387 37.729 23.7387ZM37.5978 18.1387H19.3978C19.004 18.1387 18.6978 18.4887 18.6978 18.8387V20.2387C18.6978 20.6324 19.004 20.9387 19.3978 20.9387H37.5978C37.9478 20.9387 38.2978 20.6324 38.2978 20.2387V18.8387C38.2978 18.4887 37.9478 18.1387 37.5978 18.1387Z" fill="url(#paint0_linear_1247_95945)"/>
<defs>
<linearGradient id="paint0_linear_1247_95945" x1="28.4978" y1="16.1787" x2="28.4978" y2="38.5787" gradientUnits="userSpaceOnUse">
<stop stop-color="#85CFFA"/>
<stop offset="0.0001" stop-color="#85CFFA"/>
<stop offset="1" stop-color="#2D9CDB"/>
</linearGradient>
</defs>
</svg>
