<svg width="50" height="50" viewBox="0 0 56 56" fill="none" xmlns="http://www.w3.org/2000/svg">
<rect x="0.5" y="0.5" width="55" height="55" rx="9.5" stroke="#3D56A6"/>
<path d="M38.2488 23.877L36.0574 17.3457C35.7996 16.5293 35.0262 15.9277 34.1238 15.9277H28.0652V24.1777H38.2918C38.2918 24.0918 38.2918 23.9629 38.2488 23.877ZM26.6902 15.9277H20.5887C19.6863 15.9277 18.9129 16.5293 18.6551 17.3457L16.4637 23.877C16.4207 23.9629 16.4207 24.0918 16.4207 24.1777H26.6902V15.9277ZM16.3777 25.5527V35.8652C16.3777 37.0254 17.2801 37.9277 18.4402 37.9277H36.3152C37.4324 37.9277 38.3777 37.0254 38.3777 35.8652V25.5527H16.3777Z" fill="url(#paint0_linear_1247_96937)"/>
<defs>
<linearGradient id="paint0_linear_1247_96937" x1="22.5" y1="16" x2="34.5" y2="37.5" gradientUnits="userSpaceOnUse">
<stop stop-color="#708DEA"/>
<stop offset="1" stop-color="#3D56A6"/>
</linearGradient>
</defs>
</svg>
