<svg width="50" height="50" viewBox="0 0 56 56" fill="none" xmlns="http://www.w3.org/2000/svg">
<rect x="0.5" y="0.5" width="55" height="55" rx="9.5" fill="white" stroke="#F97F7F"/>
<path d="M21.9526 32.6637C22.3901 33.1012 23.1776 32.7949 23.1776 32.1387V23.7387C23.1776 23.1262 22.3901 22.8199 21.9526 23.2574L17.7526 27.4574C17.6651 27.5887 17.5776 27.8074 17.5776 27.9387C17.5776 28.1137 17.6651 28.3324 17.7526 28.4637L21.9526 32.6637ZM36.4777 34.9387H18.2776C17.8839 34.9387 17.5776 35.2887 17.5776 35.6387V37.0387C17.5776 37.4324 17.8839 37.7387 18.2776 37.7387H36.4777C36.8277 37.7387 37.1777 37.4324 37.1777 37.0387V35.6387C37.1777 35.2887 36.8277 34.9387 36.4777 34.9387ZM36.6088 29.3387H26.5026C26.1964 29.3387 25.9776 29.6012 25.9776 29.9074V31.6137C25.9776 31.9199 26.1964 32.1387 26.5026 32.1387H36.6088C36.9152 32.1387 37.1777 31.9199 37.1777 31.6137V29.9074C37.1777 29.6012 36.9152 29.3387 36.6088 29.3387ZM36.6088 23.7387H26.5026C26.1964 23.7387 25.9776 24.0012 25.9776 24.3074V26.0137C25.9776 26.3199 26.1964 26.5387 26.5026 26.5387H36.6088C36.9152 26.5387 37.1777 26.3199 37.1777 26.0137V24.3074C37.1777 24.0012 36.9152 23.7387 36.6088 23.7387ZM36.4777 18.1387H18.2776C17.8839 18.1387 17.5776 18.4887 17.5776 18.8387V20.2387C17.5776 20.6324 17.8839 20.9387 18.2776 20.9387H36.4777C36.8277 20.9387 37.1777 20.6324 37.1777 20.2387V18.8387C37.1777 18.4887 36.8277 18.1387 36.4777 18.1387Z" fill="url(#paint0_linear_1247_95953)"/>
<defs>
<linearGradient id="paint0_linear_1247_95953" x1="27.3776" y1="16.1787" x2="27.3776" y2="38.5787" gradientUnits="userSpaceOnUse">
<stop stop-color="#F97F7F"/>
<stop offset="1" stop-color="#DB3E3E"/>
</linearGradient>
</defs>
</svg>
