<svg width="23" height="25" viewBox="0 0 23 25" fill="none" xmlns="http://www.w3.org/2000/svg">
<path d="M10.999 4.85006C9.1494 4.84314 7.35096 5.47152 5.90842 6.63288L5.90211 6.63795L5.8999 6.64017C5.44449 7.00626 5.03028 7.41634 4.66204 7.87041L4.66179 7.87072C2.25194 10.8583 2.24484 15.1189 4.64792 18.1091L4.64805 18.1093C5.01575 18.5656 5.43202 18.9796 5.88963 19.3513L5.89022 19.3518C8.87946 21.7556 13.1434 21.7486 16.1257 19.3357C16.5819 18.97 16.9959 18.5535 17.3675 18.0934L17.3681 18.0928C19.7502 15.1096 19.7431 10.8722 17.3518 7.89382L17.3517 7.89361C16.984 7.43733 16.5677 7.02334 16.1101 6.65157L16.0687 6.61799H16.0658C14.6238 5.47337 12.8377 4.85012 10.999 4.85006ZM10.999 4.85006C10.9991 4.85006 10.9992 4.85006 10.9993 4.85006L10.9987 5.00006V4.85006C10.9988 4.85006 10.9989 4.85006 10.999 4.85006ZM14.1951 10.8088L14.1952 10.809C15.0921 12.1174 15.1009 13.8393 14.2216 15.1566C13.9471 15.5672 13.5933 15.9215 13.1837 16.2034C11.4138 17.4129 9.00002 16.9598 7.79095 15.1918C6.58173 13.4236 7.0348 11.0045 8.80213 9.7973C10.5698 8.58989 12.986 9.04089 14.1951 10.8088ZM10.9935 5.81246H10.9941C12.4516 5.81246 13.8721 6.2568 15.0709 7.07817L13.3627 8.78688C11.9032 7.96424 10.1168 7.95995 8.65129 8.77372L6.94213 7.06406C8.13193 6.24373 9.54724 5.80601 10.9935 5.81246ZM15.2143 10.6322L16.9226 8.92342C17.7431 10.1202 18.1835 11.5411 18.1878 12.9973C18.1921 14.4509 17.7564 15.8648 16.9366 17.0547L15.2276 15.3451C16.0434 13.8791 16.0389 12.096 15.2143 10.6322ZM16.3213 8.17087L14.6554 9.83731C14.5041 9.6623 14.3401 9.49829 14.1641 9.34603L15.8301 7.67951C16.0023 7.83463 16.1663 7.99868 16.3213 8.17087ZM6.18556 7.66351L7.85128 9.32974C7.67634 9.47988 7.5105 9.64227 7.35826 9.817L5.69334 8.15157C5.84972 7.98166 6.0138 7.81819 6.18556 7.66351ZM6.7785 15.3662L5.0703 17.0749C3.38511 14.6168 3.39161 11.3654 5.08813 8.9093L6.79191 10.6136C5.95408 12.087 5.94732 13.8922 6.7785 15.3662ZM5.67654 17.8339L7.34203 16.1679C7.49332 16.3429 7.65733 16.5069 7.83331 16.6592L6.1677 18.3253C5.99676 18.1702 5.83277 18.0061 5.67654 17.8339ZM13.3883 17.2051L15.0922 18.9095C12.6367 20.6131 9.386 20.6196 6.92854 18.9273L8.63705 17.2183C10.1124 18.0496 11.9191 18.0453 13.3883 17.2051ZM15.8475 18.3111L14.1822 16.6453C14.3569 16.493 14.5192 16.3271 14.6693 16.1521L16.3355 17.8188C16.182 17.9906 16.0186 18.1547 15.8475 18.3111Z" fill="#6C798F" stroke="#6C798F" stroke-width="0.3"/>
</svg>
