<svg width="22" height="22" viewBox="0 0 22 22" fill="none" xmlns="http://www.w3.org/2000/svg">
<path d="M6.00408 19C5.76895 19 5.53509 18.9358 5.32647 18.8077C4.94332 18.5729 4.71481 18.1662 4.71481 17.7194V15.8444C3.36621 14.1492 2.78327 12.0323 3.07237 9.8599C3.53569 6.37463 6.42321 3.51778 9.93786 3.06784C12.4132 2.75065 14.8431 3.55567 16.607 5.27497C18.371 6.9946 19.2247 9.38898 18.9492 11.8447C18.5502 15.4011 15.6555 18.3268 12.0667 18.8018C10.636 18.99 9.18891 18.7933 7.86145 18.2294L6.58165 18.8638C6.39828 18.9546 6.20071 19 6.00408 19ZM10.084 4.19254C7.07464 4.57798 4.60214 7.02372 4.2051 10.0083C3.94914 11.9333 4.48915 13.8061 5.72571 15.2808C5.81093 15.3826 5.85764 15.511 5.85764 15.6434V17.7194C5.85764 17.7864 5.89551 17.8233 5.92707 17.8434C5.95958 17.8628 6.0104 17.8794 6.07068 17.8493L7.59287 17.0947C7.74878 17.0171 7.93278 17.0145 8.09122 17.0888C9.28896 17.6464 10.6107 17.8499 11.9155 17.6777C14.9914 17.2707 17.4718 14.7645 17.8136 11.7192C18.05 9.6116 17.3181 7.55726 15.806 6.08343C14.2939 4.60961 12.2084 3.91982 10.084 4.19254ZM10.0108 3.63019H10.0164H10.0108Z" fill="#6C798F"/>
<path d="M7.04961 12.5248L9.64938 9.29328C9.75761 9.12773 10.0075 9.08265 10.1821 9.19712L11.9238 10.3377C12.0418 10.415 12.2016 10.4221 12.328 10.356L14.4488 9.04686C14.7601 8.88377 15.122 9.17663 14.96 9.4602L12.8601 12.6324C12.7656 12.7974 12.5301 12.8573 12.3489 12.7625L10.0238 11.5441C9.91746 11.4883 9.78576 11.484 9.67503 11.5323L7.52665 12.9649C7.2057 13.1053 6.87162 12.7969 7.04961 12.5248Z" fill="#6C798F"/>
</svg>
