<svg width="32" height="32" viewBox="0 0 32 32" fill="none" xmlns="http://www.w3.org/2000/svg">
<path d="M16 32C24.8217 32 32 24.8225 32 16C32 14.4775 31.7875 12.9767 31.3667 11.5392C31.1592 10.8325 30.4217 10.4267 29.7125 10.6342C29.005 10.8408 28.6008 11.5817 28.8075 12.2883C29.1558 13.4825 29.3333 14.7317 29.3333 16C29.3333 23.3517 23.3517 29.3333 16 29.3333C8.64833 29.3333 2.66667 23.3517 2.66667 16C2.66667 8.64833 8.64833 2.66667 16 2.66667C18.6717 2.66667 21.2425 3.44833 23.4342 4.92583C24.0442 5.3375 24.8733 5.17583 25.285 4.56583C25.6967 3.955 25.5358 3.12667 24.925 2.715C22.2917 0.939167 19.205 0 16 0C7.17833 0 0 7.1775 0 16C0 24.8225 7.17833 32 16 32Z" fill="#50BF4E"/>
<path d="M29.7241 3.05664L16 16.78L11.6091 12.39C11.0883 11.8691 10.2441 11.8691 9.72412 12.39C9.20329 12.9108 9.20329 13.755 9.72412 14.275L15.0575 19.6083C15.3183 19.8691 15.6583 19.9991 16 19.9991C16.3416 19.9991 16.6816 19.8691 16.9425 19.6083L31.6091 4.94164C32.13 4.42081 32.13 3.57664 31.6091 3.05664C31.0883 2.53581 30.245 2.53581 29.7241 3.05664Z" fill="#50BF4E"/>
</svg>
