<svg width="20" height="19" viewBox="0 0 20 19" fill="none" xmlns="http://www.w3.org/2000/svg">
<path d="M9.99544 13.7871V11.4615" stroke="#6C798F" stroke-width="1.5" stroke-linecap="round" stroke-linejoin="round"/>
<path fill-rule="evenodd" clip-rule="evenodd" d="M15.6738 3.38599C17.223 3.38599 18.4697 4.64182 18.4697 6.19099V9.34432C16.2147 10.6643 13.2355 11.4618 9.99051 11.4618C6.74551 11.4618 3.77551 10.6643 1.52051 9.34432V6.18182C1.52051 4.63265 2.77634 3.38599 4.32551 3.38599H15.6738Z" stroke="#6C798F" stroke-width="1.5" stroke-linecap="round" stroke-linejoin="round"/>
<path d="M13.2038 3.38196V3.04646C13.2038 1.92813 12.2963 1.02063 11.1779 1.02063H8.81294C7.69461 1.02063 6.78711 1.92813 6.78711 3.04646V3.38196" stroke="#6C798F" stroke-width="1.5" stroke-linecap="round" stroke-linejoin="round"/>
<path d="M1.54297 12.6927L1.71622 14.9927C1.83355 16.5427 3.12514 17.7408 4.67889 17.7408H15.3113C16.8651 17.7408 18.1566 16.5427 18.274 14.9927L18.4472 12.6927" stroke="#6C798F" stroke-width="1.5" stroke-linecap="round" stroke-linejoin="round"/>
</svg>
